<mxfile host="app.diagrams.net" modified="2022-04-02T01:14:04.310Z" agent="5.0 (Windows NT 10.0; Win64; x64) AppleWebKit/537.36 (KHTML, like Gecko) Chrome/93.0.4577.63 Safari/537.36" etag="cS8OPL1xjh-Qg5pbz6wB" version="17.2.5" type="github">
  <diagram id="RYesdNrkkvENvSbMgtLH" name="模型管理">
    <mxGraphModel dx="1303" dy="727" grid="1" gridSize="10" guides="1" tooltips="1" connect="1" arrows="1" fold="1" page="1" pageScale="1" pageWidth="827" pageHeight="1169" math="0" shadow="0">
      <root>
        <mxCell id="0" />
        <mxCell id="1" parent="0" />
        <mxCell id="G5nIuUwNsv8SvUOpLTPq-1" value="&lt;b&gt;模块服务化【产品方案】设计&lt;br&gt;&lt;br&gt;&lt;/b&gt;" style="text;html=1;strokeColor=none;fillColor=none;align=left;verticalAlign=middle;whiteSpace=wrap;rounded=0;" vertex="1" parent="1">
          <mxGeometry x="80" y="20" width="454" height="40" as="geometry" />
        </mxCell>
        <mxCell id="G5nIuUwNsv8SvUOpLTPq-2" style="edgeStyle=orthogonalEdgeStyle;rounded=0;orthogonalLoop=1;jettySize=auto;html=1;endArrow=classic;endFill=1;" edge="1" parent="1">
          <mxGeometry relative="1" as="geometry">
            <mxPoint x="465.6899999999996" y="1767.8800000000006" as="sourcePoint" />
            <mxPoint x="571.69" y="1767.8800000000006" as="targetPoint" />
          </mxGeometry>
        </mxCell>
        <mxCell id="G5nIuUwNsv8SvUOpLTPq-3" value="&lt;b&gt;功能模块--【模型管理】&lt;/b&gt;" style="rounded=0;whiteSpace=wrap;html=1;fillColor=none;align=center;verticalAlign=top;" vertex="1" parent="1">
          <mxGeometry x="126.81" y="1650" width="338.38" height="230" as="geometry" />
        </mxCell>
        <mxCell id="G5nIuUwNsv8SvUOpLTPq-4" value="&lt;b&gt;&lt;font color=&quot;#0000ff&quot;&gt;五、1 .&amp;nbsp; 模型管理--详细操作流程设计&lt;/font&gt;&lt;/b&gt;" style="text;html=1;strokeColor=none;fillColor=none;align=center;verticalAlign=middle;whiteSpace=wrap;rounded=0;" vertex="1" parent="1">
          <mxGeometry x="95.19" y="2014" width="226.5" height="20" as="geometry" />
        </mxCell>
        <mxCell id="G5nIuUwNsv8SvUOpLTPq-5" value="&lt;b&gt;方案特点：&lt;/b&gt;&lt;br&gt;（1）将服务发布前的信息在模型管理统一集成，复杂的工作前置，模型服务可一键发布；&lt;br&gt;（2）模型支持内置接口、自定义接口封装方式，可分别满足简单场景 、 复杂场景的实际项目需求；&lt;br&gt;（3）在模型管理上线前，需经过测试验证，严格卡控服务正式发布；&lt;b&gt;&lt;br&gt;&lt;br&gt;&lt;/b&gt;" style="text;html=1;strokeColor=none;fillColor=none;align=left;verticalAlign=top;whiteSpace=wrap;rounded=0;dashed=1;" vertex="1" parent="1">
          <mxGeometry x="668.6899999999999" y="1516" width="540" height="70" as="geometry" />
        </mxCell>
        <mxCell id="G5nIuUwNsv8SvUOpLTPq-6" value="&lt;b&gt;功能模块--【服务管理】&lt;/b&gt;" style="rounded=0;whiteSpace=wrap;html=1;fillColor=none;align=center;verticalAlign=top;" vertex="1" parent="1">
          <mxGeometry x="575.1899999999999" y="1644" width="430" height="336" as="geometry" />
        </mxCell>
        <mxCell id="G5nIuUwNsv8SvUOpLTPq-7" value="版本管理" style="rounded=0;whiteSpace=wrap;html=1;align=left;fillColor=#dae8fc;strokeColor=#6c8ebf;" vertex="1" parent="1">
          <mxGeometry x="275.32" y="1757.3600000000001" width="62.62" height="20" as="geometry" />
        </mxCell>
        <mxCell id="G5nIuUwNsv8SvUOpLTPq-8" value="接口信息" style="rounded=0;whiteSpace=wrap;html=1;align=left;fillColor=#dae8fc;strokeColor=#6c8ebf;" vertex="1" parent="1">
          <mxGeometry x="362.69" y="1723" width="59.25" height="22.19" as="geometry" />
        </mxCell>
        <mxCell id="G5nIuUwNsv8SvUOpLTPq-9" value="测试部署" style="rounded=0;whiteSpace=wrap;html=1;align=left;fillColor=#dae8fc;strokeColor=#6c8ebf;" vertex="1" parent="1">
          <mxGeometry x="361.94" y="1757.05" width="60" height="20" as="geometry" />
        </mxCell>
        <mxCell id="G5nIuUwNsv8SvUOpLTPq-10" value="版本分流" style="rounded=0;whiteSpace=wrap;html=1;fillColor=none;align=left;" vertex="1" parent="1">
          <mxGeometry x="756.17" y="1916.88" width="56.87" height="20" as="geometry" />
        </mxCell>
        <mxCell id="G5nIuUwNsv8SvUOpLTPq-11" value="Token&lt;span style=&quot;color: rgba(0 , 0 , 0 , 0) ; font-family: monospace ; font-size: 0px&quot;&gt;%3CmxGraphModel%3E%3Croot%3E%3CmxCell%20id%3D%220%22%2F%3E%3CmxCell%20id%3D%221%22%20parent%3D%220%22%2F%3E%3CmxCell%20id%3D%222%22%20value%3D%22%E7%89%88%E6%9C%AC%E7%AE%A1%E7%90%86%22%20style%3D%22rounded%3D0%3BwhiteSpace%3Dwrap%3Bhtml%3D1%3BfillColor%3Dnone%3Balign%3Dleft%3B%22%20vertex%3D%221%22%20parent%3D%221%22%3E%3CmxGeometry%20x%3D%22654%22%20y%3D%221609.01%22%20width%3D%2274%22%20height%3D%2220%22%20as%3D%22geometry%22%2F%3E%3C%2FmxCell%3E%3C%2Froot%3E%3C%2FmxGraphModel%3E&lt;/span&gt;" style="rounded=0;whiteSpace=wrap;html=1;fillColor=none;align=left;" vertex="1" parent="1">
          <mxGeometry x="675.0700000000002" y="1916.88" width="58.18" height="20" as="geometry" />
        </mxCell>
        <mxCell id="G5nIuUwNsv8SvUOpLTPq-12" value="签名鉴权" style="rounded=0;whiteSpace=wrap;html=1;align=left;" vertex="1" parent="1">
          <mxGeometry x="676.16" y="1878.5" width="56" height="20" as="geometry" />
        </mxCell>
        <mxCell id="G5nIuUwNsv8SvUOpLTPq-13" value="流量复用" style="rounded=0;whiteSpace=wrap;html=1;fillColor=none;align=left;" vertex="1" parent="1">
          <mxGeometry x="755.4200000000001" y="1946.88" width="57" height="20" as="geometry" />
        </mxCell>
        <mxCell id="G5nIuUwNsv8SvUOpLTPq-14" value="接口限流" style="rounded=0;whiteSpace=wrap;html=1;fillColor=none;align=left;" vertex="1" parent="1">
          <mxGeometry x="756.86" y="1878.5" width="55.5" height="20" as="geometry" />
        </mxCell>
        <mxCell id="G5nIuUwNsv8SvUOpLTPq-15" value="访问监控" style="rounded=0;whiteSpace=wrap;html=1;align=left;fillColor=#dae8fc;strokeColor=#6c8ebf;" vertex="1" parent="1">
          <mxGeometry x="763.6899999999999" y="1720" width="73.12" height="20" as="geometry" />
        </mxCell>
        <mxCell id="G5nIuUwNsv8SvUOpLTPq-16" value="【一键部署】&lt;br&gt;设置【资源规格】" style="text;html=1;strokeColor=none;fillColor=none;align=center;verticalAlign=middle;whiteSpace=wrap;rounded=0;" vertex="1" parent="1">
          <mxGeometry x="473.81" y="1690" width="90" height="80" as="geometry" />
        </mxCell>
        <mxCell id="G5nIuUwNsv8SvUOpLTPq-17" value="自动休眠策略" style="rounded=0;whiteSpace=wrap;html=1;fillColor=none;align=left;" vertex="1" parent="1">
          <mxGeometry x="835.54" y="1878.5" width="77.5" height="20" as="geometry" />
        </mxCell>
        <mxCell id="G5nIuUwNsv8SvUOpLTPq-18" value="自动弹性伸缩" style="rounded=0;whiteSpace=wrap;html=1;fillColor=none;align=left;" vertex="1" parent="1">
          <mxGeometry x="835.54" y="1916.88" width="77" height="20" as="geometry" />
        </mxCell>
        <mxCell id="G5nIuUwNsv8SvUOpLTPq-19" value="&lt;b&gt;&lt;font color=&quot;#0000ff&quot;&gt;三、方案解决问题：&lt;/font&gt;&lt;/b&gt;&lt;br&gt;&lt;span&gt;&amp;nbsp;（1）解放工程人员，专注攻克复杂场景AI模型服务需求，例如涉及到中间件交互、实时要求高的。&amp;nbsp; &amp;nbsp; &amp;nbsp; &amp;nbsp;&amp;nbsp;&lt;/span&gt;&lt;br&gt;&lt;span&gt;&amp;nbsp;（2）赋予算法人员自主上线能力，模型可快速进行上线与迭代验证。&lt;/span&gt;&lt;br&gt;&lt;span&gt;&amp;nbsp;（3）算法/工程人员分工明确，模块间独立分工负责，提升AI项目的流程规范化。&lt;/span&gt;" style="text;html=1;strokeColor=none;fillColor=none;align=left;verticalAlign=middle;whiteSpace=wrap;rounded=0;" vertex="1" parent="1">
          <mxGeometry x="104.69" y="1494" width="559" height="110" as="geometry" />
        </mxCell>
        <mxCell id="G5nIuUwNsv8SvUOpLTPq-20" value="&lt;b&gt;&lt;font color=&quot;#0000ff&quot;&gt;四、模型服务化功能规划&lt;/font&gt;&lt;/b&gt;" style="text;html=1;strokeColor=none;fillColor=none;align=center;verticalAlign=middle;whiteSpace=wrap;rounded=0;" vertex="1" parent="1">
          <mxGeometry x="102.69" y="1614" width="140" height="20" as="geometry" />
        </mxCell>
        <mxCell id="G5nIuUwNsv8SvUOpLTPq-21" value="" style="rounded=0;whiteSpace=wrap;html=1;sketch=0;fillColor=none;align=left;" vertex="1" parent="1">
          <mxGeometry x="362.25" y="91" width="224.5" height="179" as="geometry" />
        </mxCell>
        <mxCell id="G5nIuUwNsv8SvUOpLTPq-22" style="edgeStyle=orthogonalEdgeStyle;curved=0;rounded=1;sketch=0;orthogonalLoop=1;jettySize=auto;html=1;entryX=0;entryY=0.5;entryDx=0;entryDy=0;" edge="1" parent="1" source="G5nIuUwNsv8SvUOpLTPq-24" target="G5nIuUwNsv8SvUOpLTPq-29">
          <mxGeometry relative="1" as="geometry" />
        </mxCell>
        <mxCell id="G5nIuUwNsv8SvUOpLTPq-23" style="edgeStyle=orthogonalEdgeStyle;curved=0;rounded=1;sketch=0;orthogonalLoop=1;jettySize=auto;html=1;entryX=0;entryY=0.25;entryDx=0;entryDy=0;" edge="1" parent="1" source="G5nIuUwNsv8SvUOpLTPq-24" target="G5nIuUwNsv8SvUOpLTPq-37">
          <mxGeometry relative="1" as="geometry">
            <Array as="points">
              <mxPoint x="333" y="126" />
              <mxPoint x="333" y="238" />
            </Array>
          </mxGeometry>
        </mxCell>
        <mxCell id="G5nIuUwNsv8SvUOpLTPq-24" value="方式1、交付模型文件" style="text;html=1;strokeColor=none;fillColor=none;align=center;verticalAlign=middle;whiteSpace=wrap;rounded=0;sketch=0;" vertex="1" parent="1">
          <mxGeometry x="186" y="116" width="119.5" height="20" as="geometry" />
        </mxCell>
        <mxCell id="G5nIuUwNsv8SvUOpLTPq-25" style="edgeStyle=orthogonalEdgeStyle;curved=0;rounded=1;sketch=0;orthogonalLoop=1;jettySize=auto;html=1;entryX=0;entryY=0.5;entryDx=0;entryDy=0;" edge="1" parent="1" source="G5nIuUwNsv8SvUOpLTPq-27" target="G5nIuUwNsv8SvUOpLTPq-31">
          <mxGeometry relative="1" as="geometry" />
        </mxCell>
        <mxCell id="G5nIuUwNsv8SvUOpLTPq-26" style="edgeStyle=orthogonalEdgeStyle;curved=0;rounded=1;sketch=0;orthogonalLoop=1;jettySize=auto;html=1;entryX=0;entryY=0.25;entryDx=0;entryDy=0;" edge="1" parent="1" source="G5nIuUwNsv8SvUOpLTPq-27" target="G5nIuUwNsv8SvUOpLTPq-37">
          <mxGeometry relative="1" as="geometry">
            <Array as="points">
              <mxPoint x="323" y="180" />
              <mxPoint x="323" y="238" />
            </Array>
          </mxGeometry>
        </mxCell>
        <mxCell id="G5nIuUwNsv8SvUOpLTPq-27" value="方式2、交付模型接口" style="text;html=1;strokeColor=none;fillColor=none;align=center;verticalAlign=middle;whiteSpace=wrap;rounded=0;sketch=0;" vertex="1" parent="1">
          <mxGeometry x="180.5" y="170.5" width="119.5" height="20" as="geometry" />
        </mxCell>
        <mxCell id="G5nIuUwNsv8SvUOpLTPq-28" style="edgeStyle=orthogonalEdgeStyle;curved=0;rounded=1;sketch=0;orthogonalLoop=1;jettySize=auto;html=1;entryX=-0.103;entryY=0.169;entryDx=0;entryDy=0;entryPerimeter=0;" edge="1" parent="1" source="G5nIuUwNsv8SvUOpLTPq-29" target="G5nIuUwNsv8SvUOpLTPq-32">
          <mxGeometry relative="1" as="geometry">
            <Array as="points">
              <mxPoint x="593" y="121" />
              <mxPoint x="593" y="121" />
            </Array>
          </mxGeometry>
        </mxCell>
        <mxCell id="G5nIuUwNsv8SvUOpLTPq-29" value="接口封装" style="rounded=0;whiteSpace=wrap;html=1;sketch=0;fillColor=#d5e8d4;align=center;strokeColor=#82b366;" vertex="1" parent="1">
          <mxGeometry x="413.63" y="106" width="120" height="40" as="geometry" />
        </mxCell>
        <mxCell id="G5nIuUwNsv8SvUOpLTPq-30" style="edgeStyle=orthogonalEdgeStyle;curved=0;rounded=1;sketch=0;orthogonalLoop=1;jettySize=auto;html=1;entryX=-0.04;entryY=0.167;entryDx=0;entryDy=0;entryPerimeter=0;" edge="1" parent="1" source="G5nIuUwNsv8SvUOpLTPq-31" target="G5nIuUwNsv8SvUOpLTPq-32">
          <mxGeometry relative="1" as="geometry">
            <Array as="points">
              <mxPoint x="563" y="181" />
              <mxPoint x="563" y="121" />
            </Array>
          </mxGeometry>
        </mxCell>
        <mxCell id="G5nIuUwNsv8SvUOpLTPq-31" value="（二次）接口封装&lt;br&gt;（中间件）" style="rounded=0;whiteSpace=wrap;html=1;sketch=0;fillColor=#f8cecc;align=left;strokeColor=#b85450;" vertex="1" parent="1">
          <mxGeometry x="414.25" y="161" width="118.75" height="40" as="geometry" />
        </mxCell>
        <mxCell id="G5nIuUwNsv8SvUOpLTPq-32" value="业&lt;br&gt;务&lt;br&gt;系&lt;br&gt;统" style="rounded=0;whiteSpace=wrap;html=1;sketch=0;fillColor=#f8cecc;align=left;strokeColor=#b85450;" vertex="1" parent="1">
          <mxGeometry x="783.75" y="91" width="24.5" height="179" as="geometry" />
        </mxCell>
        <mxCell id="G5nIuUwNsv8SvUOpLTPq-33" value="API接口" style="text;html=1;strokeColor=none;fillColor=none;align=center;verticalAlign=middle;whiteSpace=wrap;rounded=0;sketch=0;" vertex="1" parent="1">
          <mxGeometry x="636" y="96" width="65" height="20" as="geometry" />
        </mxCell>
        <mxCell id="G5nIuUwNsv8SvUOpLTPq-34" style="edgeStyle=orthogonalEdgeStyle;curved=0;rounded=1;sketch=0;orthogonalLoop=1;jettySize=auto;html=1;entryX=0.105;entryY=0.853;entryDx=0;entryDy=0;entryPerimeter=0;startArrow=classic;startFill=1;" edge="1" parent="1" source="G5nIuUwNsv8SvUOpLTPq-35" target="G5nIuUwNsv8SvUOpLTPq-32">
          <mxGeometry relative="1" as="geometry" />
        </mxCell>
        <mxCell id="G5nIuUwNsv8SvUOpLTPq-35" value="Kafka消息队列" style="rounded=0;whiteSpace=wrap;html=1;sketch=0;align=center;fillColor=#f8cecc;strokeColor=#b85450;" vertex="1" parent="1">
          <mxGeometry x="644" y="230" width="60" height="29" as="geometry" />
        </mxCell>
        <mxCell id="G5nIuUwNsv8SvUOpLTPq-36" style="edgeStyle=orthogonalEdgeStyle;curved=0;rounded=1;sketch=0;orthogonalLoop=1;jettySize=auto;html=1;entryX=0;entryY=0.5;entryDx=0;entryDy=0;startArrow=classic;startFill=1;" edge="1" parent="1" source="G5nIuUwNsv8SvUOpLTPq-37" target="G5nIuUwNsv8SvUOpLTPq-35">
          <mxGeometry relative="1" as="geometry" />
        </mxCell>
        <mxCell id="G5nIuUwNsv8SvUOpLTPq-37" value="微服务封装&lt;br&gt;（中间件）" style="rounded=0;whiteSpace=wrap;html=1;sketch=0;align=center;fillColor=#f8cecc;strokeColor=#b85450;" vertex="1" parent="1">
          <mxGeometry x="414" y="230" width="120" height="30" as="geometry" />
        </mxCell>
        <mxCell id="G5nIuUwNsv8SvUOpLTPq-38" style="edgeStyle=orthogonalEdgeStyle;curved=0;rounded=1;sketch=0;orthogonalLoop=1;jettySize=auto;html=1;" edge="1" parent="1" source="G5nIuUwNsv8SvUOpLTPq-40" target="G5nIuUwNsv8SvUOpLTPq-27">
          <mxGeometry relative="1" as="geometry" />
        </mxCell>
        <mxCell id="G5nIuUwNsv8SvUOpLTPq-39" style="edgeStyle=orthogonalEdgeStyle;curved=0;rounded=1;sketch=0;orthogonalLoop=1;jettySize=auto;html=1;" edge="1" parent="1" source="G5nIuUwNsv8SvUOpLTPq-40" target="G5nIuUwNsv8SvUOpLTPq-24">
          <mxGeometry relative="1" as="geometry" />
        </mxCell>
        <mxCell id="G5nIuUwNsv8SvUOpLTPq-40" value="算法开发&lt;br&gt;（&lt;br&gt;本地）" style="rounded=0;whiteSpace=wrap;html=1;sketch=0;fillColor=#d5e8d4;align=left;strokeColor=#82b366;" vertex="1" parent="1">
          <mxGeometry x="113.75" y="91" width="24.5" height="179" as="geometry" />
        </mxCell>
        <mxCell id="G5nIuUwNsv8SvUOpLTPq-41" value="&lt;b&gt;&lt;font color=&quot;#0000ff&quot;&gt;一、模型上线流程（当前实际的场景操作流程）&lt;/font&gt;&lt;/b&gt;" style="text;html=1;strokeColor=none;fillColor=none;align=center;verticalAlign=middle;whiteSpace=wrap;rounded=0;" vertex="1" parent="1">
          <mxGeometry x="102.13" y="50" width="265.87" height="20" as="geometry" />
        </mxCell>
        <mxCell id="G5nIuUwNsv8SvUOpLTPq-42" value="&lt;b&gt;&lt;font color=&quot;#0000ff&quot;&gt;二、产品方案流程&lt;/font&gt;&lt;br&gt;满足场景： 针对实时AI模型接口类需求，算法人员通过AI平台，快速将模型以接口的方式交付给内部工程人员或业务系统；&lt;br&gt;&lt;br&gt;模型管理：&lt;/b&gt;为算法用户提供模型服务API上线前的&lt;b&gt;必要信息集成&lt;/b&gt;，为模型服务的一键&lt;b&gt;部署上线做好所有的前置准备&lt;/b&gt;；&lt;br&gt;&amp;nbsp; &amp;nbsp; &amp;nbsp; &amp;nbsp; &amp;nbsp; &amp;nbsp; &amp;nbsp; &amp;nbsp; &amp;nbsp; &amp;nbsp;保障服务上线前的 &lt;b&gt;正确性、时效性 ，&lt;/b&gt;符合上线要求；&lt;br&gt;&lt;b&gt;服务管理：&lt;/b&gt;为算法用户统一管理&lt;b&gt;上线后的模型服务&lt;/b&gt;，&lt;b&gt;直接对业务系统提供服务&lt;/b&gt;；&amp;nbsp; &amp;nbsp; &amp;nbsp; &amp;nbsp; &amp;nbsp; &amp;nbsp; &amp;nbsp; &amp;nbsp; &amp;nbsp; &amp;nbsp; &amp;nbsp; &amp;nbsp; &amp;nbsp; &amp;nbsp; &amp;nbsp; &amp;nbsp; &amp;nbsp; &amp;nbsp; &amp;nbsp; &amp;nbsp; &amp;nbsp; &amp;nbsp; &amp;nbsp; &amp;nbsp; &amp;nbsp; &amp;nbsp; &amp;nbsp; &amp;nbsp; &amp;nbsp; &amp;nbsp; &amp;nbsp; &amp;nbsp;&lt;br&gt;&amp;nbsp; &amp;nbsp; &amp;nbsp; &amp;nbsp; &amp;nbsp; &amp;nbsp; &amp;nbsp; &amp;nbsp; &amp;nbsp; &amp;nbsp;保障服务上线后的 &lt;b&gt;稳定性。&lt;/b&gt;" style="text;html=1;strokeColor=none;fillColor=none;align=left;verticalAlign=middle;whiteSpace=wrap;rounded=0;" vertex="1" parent="1">
          <mxGeometry x="105.94" y="1117" width="820.87" height="100" as="geometry" />
        </mxCell>
        <mxCell id="G5nIuUwNsv8SvUOpLTPq-43" value="模型服务化方案" style="swimlane;html=1;childLayout=stackLayout;resizeParent=1;resizeParentMax=0;startSize=20;rounded=0;sketch=0;fillColor=none;align=center;" vertex="1" parent="1">
          <mxGeometry x="106.81" y="1222" width="690" height="220" as="geometry" />
        </mxCell>
        <mxCell id="G5nIuUwNsv8SvUOpLTPq-44" value="模型训练" style="swimlane;html=1;startSize=20;" vertex="1" parent="G5nIuUwNsv8SvUOpLTPq-43">
          <mxGeometry y="20" width="230" height="200" as="geometry" />
        </mxCell>
        <mxCell id="G5nIuUwNsv8SvUOpLTPq-45" value="Notebook" style="rounded=1;whiteSpace=wrap;html=1;absoluteArcSize=1;arcSize=14;strokeWidth=2;sketch=0;fillColor=none;align=center;" vertex="1" parent="G5nIuUwNsv8SvUOpLTPq-44">
          <mxGeometry x="62" y="40" width="84" height="20" as="geometry" />
        </mxCell>
        <mxCell id="G5nIuUwNsv8SvUOpLTPq-46" value="沙盒任务" style="rounded=1;whiteSpace=wrap;html=1;absoluteArcSize=1;arcSize=81;strokeWidth=2;sketch=0;fillColor=none;align=center;" vertex="1" parent="G5nIuUwNsv8SvUOpLTPq-44">
          <mxGeometry x="62" y="80" width="84" height="20" as="geometry" />
        </mxCell>
        <mxCell id="G5nIuUwNsv8SvUOpLTPq-47" value="模型管理" style="swimlane;html=1;startSize=20;" vertex="1" parent="G5nIuUwNsv8SvUOpLTPq-43">
          <mxGeometry x="230" y="20" width="230" height="200" as="geometry" />
        </mxCell>
        <mxCell id="G5nIuUwNsv8SvUOpLTPq-48" style="edgeStyle=orthogonalEdgeStyle;curved=0;rounded=1;sketch=0;orthogonalLoop=1;jettySize=auto;html=1;entryX=0.5;entryY=0;entryDx=0;entryDy=0;startArrow=none;startFill=0;exitX=0.481;exitY=1.021;exitDx=0;exitDy=0;exitPerimeter=0;" edge="1" parent="G5nIuUwNsv8SvUOpLTPq-47" source="G5nIuUwNsv8SvUOpLTPq-49" target="G5nIuUwNsv8SvUOpLTPq-51">
          <mxGeometry relative="1" as="geometry" />
        </mxCell>
        <mxCell id="G5nIuUwNsv8SvUOpLTPq-49" value="模型(接口)封装" style="rounded=1;whiteSpace=wrap;html=1;absoluteArcSize=1;arcSize=14;strokeWidth=2;sketch=0;fillColor=none;align=center;" vertex="1" parent="G5nIuUwNsv8SvUOpLTPq-47">
          <mxGeometry x="62" y="40" width="84" height="20" as="geometry" />
        </mxCell>
        <mxCell id="G5nIuUwNsv8SvUOpLTPq-50" style="edgeStyle=orthogonalEdgeStyle;curved=0;rounded=1;sketch=0;orthogonalLoop=1;jettySize=auto;html=1;entryX=0.5;entryY=0;entryDx=0;entryDy=0;startArrow=none;startFill=0;" edge="1" parent="G5nIuUwNsv8SvUOpLTPq-47" source="G5nIuUwNsv8SvUOpLTPq-51" target="G5nIuUwNsv8SvUOpLTPq-52">
          <mxGeometry relative="1" as="geometry" />
        </mxCell>
        <mxCell id="G5nIuUwNsv8SvUOpLTPq-51" value="测试部署" style="rounded=1;whiteSpace=wrap;html=1;absoluteArcSize=1;arcSize=77;strokeWidth=2;sketch=0;fillColor=none;align=center;" vertex="1" parent="G5nIuUwNsv8SvUOpLTPq-47">
          <mxGeometry x="60" y="100" width="84" height="20" as="geometry" />
        </mxCell>
        <mxCell id="G5nIuUwNsv8SvUOpLTPq-52" value="接口测试" style="rounded=1;whiteSpace=wrap;html=1;absoluteArcSize=1;arcSize=14;strokeWidth=2;sketch=0;fillColor=none;align=center;" vertex="1" parent="G5nIuUwNsv8SvUOpLTPq-47">
          <mxGeometry x="60" y="160" width="84" height="20" as="geometry" />
        </mxCell>
        <mxCell id="G5nIuUwNsv8SvUOpLTPq-53" value="正式&lt;br&gt;部署" style="text;html=1;strokeColor=none;fillColor=none;align=center;verticalAlign=middle;whiteSpace=wrap;rounded=0;sketch=0;" vertex="1" parent="G5nIuUwNsv8SvUOpLTPq-47">
          <mxGeometry x="185" y="100" width="40" height="20" as="geometry" />
        </mxCell>
        <mxCell id="G5nIuUwNsv8SvUOpLTPq-54" value="&lt;font style=&quot;font-size: 10px&quot;&gt;模型文件&lt;/font&gt;" style="text;html=1;strokeColor=none;fillColor=none;align=center;verticalAlign=middle;whiteSpace=wrap;rounded=0;sketch=0;" vertex="1" parent="G5nIuUwNsv8SvUOpLTPq-47">
          <mxGeometry y="32" width="50" height="20" as="geometry" />
        </mxCell>
        <mxCell id="G5nIuUwNsv8SvUOpLTPq-55" value="服务管理" style="swimlane;html=1;startSize=20;" vertex="1" parent="G5nIuUwNsv8SvUOpLTPq-43">
          <mxGeometry x="460" y="20" width="230" height="200" as="geometry" />
        </mxCell>
        <mxCell id="G5nIuUwNsv8SvUOpLTPq-56" value="监控&amp;amp;告警" style="rounded=1;whiteSpace=wrap;html=1;absoluteArcSize=1;arcSize=14;strokeWidth=2;sketch=0;fillColor=none;align=center;" vertex="1" parent="G5nIuUwNsv8SvUOpLTPq-55">
          <mxGeometry x="64" y="90" width="84" height="20" as="geometry" />
        </mxCell>
        <mxCell id="G5nIuUwNsv8SvUOpLTPq-57" value="资源伸缩" style="rounded=1;whiteSpace=wrap;html=1;absoluteArcSize=1;arcSize=14;strokeWidth=2;sketch=0;fillColor=none;align=center;" vertex="1" parent="G5nIuUwNsv8SvUOpLTPq-55">
          <mxGeometry x="64" y="125" width="84" height="20" as="geometry" />
        </mxCell>
        <mxCell id="G5nIuUwNsv8SvUOpLTPq-58" value="操作日志" style="rounded=1;whiteSpace=wrap;html=1;absoluteArcSize=1;arcSize=33;strokeWidth=2;sketch=0;fillColor=none;align=center;" vertex="1" parent="G5nIuUwNsv8SvUOpLTPq-55">
          <mxGeometry x="64" y="160" width="84" height="20" as="geometry" />
        </mxCell>
        <mxCell id="G5nIuUwNsv8SvUOpLTPq-59" style="edgeStyle=orthogonalEdgeStyle;curved=0;rounded=1;sketch=0;orthogonalLoop=1;jettySize=auto;html=1;entryX=0;entryY=0.5;entryDx=0;entryDy=0;startArrow=none;startFill=0;" edge="1" parent="G5nIuUwNsv8SvUOpLTPq-43" source="G5nIuUwNsv8SvUOpLTPq-45" target="G5nIuUwNsv8SvUOpLTPq-49">
          <mxGeometry relative="1" as="geometry" />
        </mxCell>
        <mxCell id="G5nIuUwNsv8SvUOpLTPq-60" style="edgeStyle=orthogonalEdgeStyle;curved=0;rounded=1;sketch=0;orthogonalLoop=1;jettySize=auto;html=1;entryX=0;entryY=0.5;entryDx=0;entryDy=0;startArrow=none;startFill=0;" edge="1" parent="G5nIuUwNsv8SvUOpLTPq-43" source="G5nIuUwNsv8SvUOpLTPq-46" target="G5nIuUwNsv8SvUOpLTPq-49">
          <mxGeometry relative="1" as="geometry" />
        </mxCell>
        <mxCell id="G5nIuUwNsv8SvUOpLTPq-61" style="edgeStyle=orthogonalEdgeStyle;curved=0;rounded=1;sketch=0;orthogonalLoop=1;jettySize=auto;html=1;entryX=0;entryY=0.5;entryDx=0;entryDy=0;startArrow=none;startFill=0;" edge="1" parent="1" source="G5nIuUwNsv8SvUOpLTPq-62" target="G5nIuUwNsv8SvUOpLTPq-49">
          <mxGeometry relative="1" as="geometry" />
        </mxCell>
        <mxCell id="G5nIuUwNsv8SvUOpLTPq-62" value="工作流" style="rounded=1;whiteSpace=wrap;html=1;absoluteArcSize=1;arcSize=81;strokeWidth=2;sketch=0;fillColor=none;align=center;" vertex="1" parent="1">
          <mxGeometry x="168.81" y="1362" width="84" height="20" as="geometry" />
        </mxCell>
        <mxCell id="G5nIuUwNsv8SvUOpLTPq-63" style="edgeStyle=orthogonalEdgeStyle;curved=0;rounded=1;sketch=0;orthogonalLoop=1;jettySize=auto;html=1;startArrow=none;startFill=0;" edge="1" parent="1" source="G5nIuUwNsv8SvUOpLTPq-64">
          <mxGeometry relative="1" as="geometry">
            <mxPoint x="397.8099999999995" y="1291.9999999999995" as="targetPoint" />
            <Array as="points">
              <mxPoint x="327.81" y="1412" />
              <mxPoint x="327.81" y="1292" />
            </Array>
          </mxGeometry>
        </mxCell>
        <mxCell id="G5nIuUwNsv8SvUOpLTPq-64" value="本地训练" style="rounded=1;whiteSpace=wrap;html=1;absoluteArcSize=1;arcSize=81;strokeWidth=2;sketch=0;fillColor=none;align=center;" vertex="1" parent="1">
          <mxGeometry x="168.81" y="1402" width="84" height="20" as="geometry" />
        </mxCell>
        <mxCell id="G5nIuUwNsv8SvUOpLTPq-65" value="服务上线" style="rounded=1;whiteSpace=wrap;html=1;absoluteArcSize=1;arcSize=14;strokeWidth=2;sketch=0;fillColor=none;align=center;" vertex="1" parent="1">
          <mxGeometry x="630.81" y="1282" width="84" height="20" as="geometry" />
        </mxCell>
        <mxCell id="G5nIuUwNsv8SvUOpLTPq-66" style="edgeStyle=orthogonalEdgeStyle;curved=0;rounded=1;sketch=0;orthogonalLoop=1;jettySize=auto;html=1;entryX=0;entryY=0.5;entryDx=0;entryDy=0;startArrow=none;startFill=0;" edge="1" parent="1" source="G5nIuUwNsv8SvUOpLTPq-52" target="G5nIuUwNsv8SvUOpLTPq-65">
          <mxGeometry relative="1" as="geometry" />
        </mxCell>
        <mxCell id="G5nIuUwNsv8SvUOpLTPq-67" style="edgeStyle=orthogonalEdgeStyle;curved=0;rounded=1;sketch=0;orthogonalLoop=1;jettySize=auto;html=1;entryX=1;entryY=0.5;entryDx=0;entryDy=0;startArrow=classic;startFill=1;dashed=1;" edge="1" parent="1" source="G5nIuUwNsv8SvUOpLTPq-68" target="G5nIuUwNsv8SvUOpLTPq-65">
          <mxGeometry relative="1" as="geometry" />
        </mxCell>
        <mxCell id="G5nIuUwNsv8SvUOpLTPq-68" value="业务系统-正式环境" style="rounded=1;whiteSpace=wrap;html=1;sketch=0;fillColor=none;align=center;" vertex="1" parent="1">
          <mxGeometry x="846.31" y="1276" width="123" height="30" as="geometry" />
        </mxCell>
        <mxCell id="G5nIuUwNsv8SvUOpLTPq-69" style="edgeStyle=orthogonalEdgeStyle;curved=0;rounded=1;sketch=0;orthogonalLoop=1;jettySize=auto;html=1;entryX=0.5;entryY=1;entryDx=0;entryDy=0;dashed=1;startArrow=classic;startFill=1;" edge="1" parent="1" target="G5nIuUwNsv8SvUOpLTPq-52">
          <mxGeometry relative="1" as="geometry">
            <mxPoint x="897.81" y="1371.9999999999995" as="sourcePoint" />
            <Array as="points">
              <mxPoint x="897.31" y="1465" />
              <mxPoint x="439.31" y="1465" />
            </Array>
          </mxGeometry>
        </mxCell>
        <mxCell id="G5nIuUwNsv8SvUOpLTPq-70" value="业务系统-测试环境" style="rounded=1;whiteSpace=wrap;html=1;sketch=0;fillColor=none;align=center;" vertex="1" parent="1">
          <mxGeometry x="846.31" y="1336" width="120" height="30" as="geometry" />
        </mxCell>
        <mxCell id="G5nIuUwNsv8SvUOpLTPq-71" value="异常告警" style="rounded=0;whiteSpace=wrap;html=1;align=left;fillColor=#dae8fc;strokeColor=#6c8ebf;" vertex="1" parent="1">
          <mxGeometry x="933.04" y="1878.5" width="63.77" height="20" as="geometry" />
        </mxCell>
        <mxCell id="G5nIuUwNsv8SvUOpLTPq-72" value="&lt;b&gt;场景1：&lt;/b&gt;&lt;font color=&quot;#0000ff&quot;&gt;算法用户训练单个模型，提供模型文件、业务逻辑前后处理逻辑代码&amp;nbsp; -&amp;gt; 工程人员做web API封装 -&amp;gt;&amp;nbsp; 部署测试上线；&lt;/font&gt;&lt;br&gt;&lt;br&gt;&lt;b&gt;场景2：&lt;/b&gt;&lt;font color=&quot;#0000ff&quot;&gt;算法用户训练多个子模型，提供多个模型文件，并业务逻辑告知工程人员 -&amp;gt; 工程人员分别封装与部署四个子模型，再根据业务流程逻辑编写业务逻辑接口代码 -&amp;gt; 工程人员负责部署测试上线；&lt;/font&gt;&lt;br&gt;&lt;br&gt;&lt;b&gt;场景3：&lt;/b&gt;&lt;font color=&quot;#3333ff&quot;&gt;算法用户训练模型，并封装模型接口，将接口提供给工程人员使用 -&amp;gt; 工程人员使用接口二次微服务封装（含前后业务处理逻辑），微服务与业务通过Kafka通讯-&amp;gt; 算法、工程人员负责部署各自的部分，并测试上线；&lt;/font&gt;" style="text;html=1;strokeColor=none;fillColor=none;align=left;verticalAlign=middle;whiteSpace=wrap;rounded=0;sketch=0;" vertex="1" parent="1">
          <mxGeometry x="104" y="280" width="1346" height="80" as="geometry" />
        </mxCell>
        <mxCell id="G5nIuUwNsv8SvUOpLTPq-73" value="操作日志" style="rounded=0;whiteSpace=wrap;html=1;align=left;" vertex="1" parent="1">
          <mxGeometry x="933.04" y="1916.88" width="53" height="20" as="geometry" />
        </mxCell>
        <mxCell id="G5nIuUwNsv8SvUOpLTPq-74" value="文件共享存储区" style="rounded=0;whiteSpace=wrap;html=1;sketch=0;" vertex="1" parent="1">
          <mxGeometry x="278.31" y="1281" width="22" height="140" as="geometry" />
        </mxCell>
        <mxCell id="G5nIuUwNsv8SvUOpLTPq-75" style="edgeStyle=orthogonalEdgeStyle;curved=0;rounded=1;sketch=0;orthogonalLoop=1;jettySize=auto;html=1;entryX=0;entryY=0.5;entryDx=0;entryDy=0;" edge="1" parent="1" source="G5nIuUwNsv8SvUOpLTPq-77" target="G5nIuUwNsv8SvUOpLTPq-80">
          <mxGeometry relative="1" as="geometry" />
        </mxCell>
        <mxCell id="G5nIuUwNsv8SvUOpLTPq-76" style="edgeStyle=orthogonalEdgeStyle;curved=0;rounded=1;sketch=0;orthogonalLoop=1;jettySize=auto;html=1;entryX=0.5;entryY=1;entryDx=0;entryDy=0;" edge="1" parent="1" source="G5nIuUwNsv8SvUOpLTPq-77" target="G5nIuUwNsv8SvUOpLTPq-78">
          <mxGeometry relative="1" as="geometry">
            <Array as="points">
              <mxPoint x="284.56" y="473.94000000000005" />
              <mxPoint x="284.56" y="518.94" />
              <mxPoint x="593.56" y="518.94" />
            </Array>
          </mxGeometry>
        </mxCell>
        <mxCell id="G5nIuUwNsv8SvUOpLTPq-77" value="模型接口（AI平台）" style="rounded=0;whiteSpace=wrap;html=1;sketch=0;fillColor=#d5e8d4;strokeColor=#82b366;" vertex="1" parent="1">
          <mxGeometry x="106.81" y="458.94000000000005" width="120" height="30" as="geometry" />
        </mxCell>
        <mxCell id="G5nIuUwNsv8SvUOpLTPq-78" value="业务系统" style="rounded=0;whiteSpace=wrap;html=1;sketch=0;fillColor=#f8cecc;strokeColor=#b85450;" vertex="1" parent="1">
          <mxGeometry x="533.81" y="458.94000000000005" width="120" height="30" as="geometry" />
        </mxCell>
        <mxCell id="G5nIuUwNsv8SvUOpLTPq-79" style="edgeStyle=orthogonalEdgeStyle;curved=0;rounded=1;sketch=0;orthogonalLoop=1;jettySize=auto;html=1;entryX=0;entryY=0.5;entryDx=0;entryDy=0;" edge="1" parent="1" source="G5nIuUwNsv8SvUOpLTPq-80" target="G5nIuUwNsv8SvUOpLTPq-78">
          <mxGeometry relative="1" as="geometry" />
        </mxCell>
        <mxCell id="G5nIuUwNsv8SvUOpLTPq-80" value="二次封装（顺丰云）" style="rounded=0;whiteSpace=wrap;html=1;sketch=0;fillColor=#f8cecc;strokeColor=#b85450;" vertex="1" parent="1">
          <mxGeometry x="320.1900000000001" y="458.94000000000005" width="120" height="30" as="geometry" />
        </mxCell>
        <mxCell id="G5nIuUwNsv8SvUOpLTPq-81" value="API" style="text;html=1;strokeColor=none;fillColor=none;align=center;verticalAlign=middle;whiteSpace=wrap;rounded=0;sketch=0;" vertex="1" parent="1">
          <mxGeometry x="233.31" y="448.94000000000005" width="40" height="20" as="geometry" />
        </mxCell>
        <mxCell id="G5nIuUwNsv8SvUOpLTPq-82" value="&lt;font color=&quot;#0000ff&quot;&gt;①&amp;nbsp; 不需要工程人员介入&lt;/font&gt;" style="text;html=1;strokeColor=none;fillColor=none;align=center;verticalAlign=middle;whiteSpace=wrap;rounded=0;sketch=0;" vertex="1" parent="1">
          <mxGeometry x="312.81" y="523.5" width="150" height="20" as="geometry" />
        </mxCell>
        <mxCell id="G5nIuUwNsv8SvUOpLTPq-83" value="&lt;font color=&quot;#ff0000&quot;&gt;②需要工程人员介入&lt;/font&gt;" style="text;html=1;strokeColor=none;fillColor=none;align=center;verticalAlign=middle;whiteSpace=wrap;rounded=0;sketch=0;" vertex="1" parent="1">
          <mxGeometry x="312.81" y="430" width="123.5" height="20" as="geometry" />
        </mxCell>
        <mxCell id="G5nIuUwNsv8SvUOpLTPq-84" value="" style="shape=table;html=1;whiteSpace=wrap;startSize=0;container=1;collapsible=0;childLayout=tableLayout;rounded=0;sketch=0;align=left;" vertex="1" parent="1">
          <mxGeometry x="107.81" y="670" width="642.19" height="391.00000000000114" as="geometry" />
        </mxCell>
        <mxCell id="G5nIuUwNsv8SvUOpLTPq-85" value="" style="shape=partialRectangle;html=1;whiteSpace=wrap;collapsible=0;dropTarget=0;pointerEvents=0;fillColor=none;top=0;left=0;bottom=0;right=0;points=[[0,0.5],[1,0.5]];portConstraint=eastwest;" vertex="1" parent="G5nIuUwNsv8SvUOpLTPq-84">
          <mxGeometry width="642.19" height="30" as="geometry" />
        </mxCell>
        <mxCell id="G5nIuUwNsv8SvUOpLTPq-86" value="用户关注点" style="shape=partialRectangle;html=1;whiteSpace=wrap;connectable=0;fillColor=#ffcc99;top=0;left=0;bottom=0;right=0;overflow=hidden;labelBackgroundColor=#ffffff;strokeColor=#36393d;" vertex="1" parent="G5nIuUwNsv8SvUOpLTPq-85">
          <mxGeometry width="319" height="30" as="geometry">
            <mxRectangle width="319" height="30" as="alternateBounds" />
          </mxGeometry>
        </mxCell>
        <mxCell id="G5nIuUwNsv8SvUOpLTPq-87" value="功能" style="shape=partialRectangle;html=1;whiteSpace=wrap;connectable=0;fillColor=#ffcc99;top=0;left=0;bottom=0;right=0;overflow=hidden;labelBackgroundColor=#ffffff;strokeColor=#36393d;" vertex="1" parent="G5nIuUwNsv8SvUOpLTPq-85">
          <mxGeometry x="319" width="323" height="30" as="geometry">
            <mxRectangle width="323" height="30" as="alternateBounds" />
          </mxGeometry>
        </mxCell>
        <mxCell id="G5nIuUwNsv8SvUOpLTPq-88" value="" style="shape=partialRectangle;html=1;whiteSpace=wrap;collapsible=0;dropTarget=0;pointerEvents=0;fillColor=none;top=0;left=0;bottom=0;right=0;points=[[0,0.5],[1,0.5]];portConstraint=eastwest;" vertex="1" parent="G5nIuUwNsv8SvUOpLTPq-84">
          <mxGeometry y="30" width="642.19" height="36" as="geometry" />
        </mxCell>
        <mxCell id="G5nIuUwNsv8SvUOpLTPq-89" value="接口正确性(上线前，接口格式、性能、指标)" style="shape=partialRectangle;html=1;whiteSpace=wrap;connectable=0;fillColor=none;top=0;left=0;bottom=0;right=0;overflow=hidden;align=left;" vertex="1" parent="G5nIuUwNsv8SvUOpLTPq-88">
          <mxGeometry width="319" height="36" as="geometry">
            <mxRectangle width="319" height="36" as="alternateBounds" />
          </mxGeometry>
        </mxCell>
        <mxCell id="G5nIuUwNsv8SvUOpLTPq-90" value="（1）发布测试功能：保障上线前模型服务的功能、性能得到基本验证；" style="shape=partialRectangle;html=1;whiteSpace=wrap;connectable=0;fillColor=none;top=0;left=0;bottom=0;right=0;overflow=hidden;align=left;" vertex="1" parent="G5nIuUwNsv8SvUOpLTPq-88">
          <mxGeometry x="319" width="323" height="36" as="geometry">
            <mxRectangle width="323" height="36" as="alternateBounds" />
          </mxGeometry>
        </mxCell>
        <mxCell id="G5nIuUwNsv8SvUOpLTPq-91" value="" style="shape=partialRectangle;html=1;whiteSpace=wrap;collapsible=0;dropTarget=0;pointerEvents=0;fillColor=none;top=0;left=0;bottom=0;right=0;points=[[0,0.5],[1,0.5]];portConstraint=eastwest;" vertex="1" parent="G5nIuUwNsv8SvUOpLTPq-84">
          <mxGeometry y="66" width="642.19" height="36" as="geometry" />
        </mxCell>
        <mxCell id="G5nIuUwNsv8SvUOpLTPq-92" value="接口服务的时效性（上线后，空载性能）" style="shape=partialRectangle;html=1;whiteSpace=wrap;connectable=0;fillColor=none;top=0;left=0;bottom=0;right=0;overflow=hidden;align=left;" vertex="1" parent="G5nIuUwNsv8SvUOpLTPq-91">
          <mxGeometry width="319" height="36" as="geometry">
            <mxRectangle width="319" height="36" as="alternateBounds" />
          </mxGeometry>
        </mxCell>
        <mxCell id="G5nIuUwNsv8SvUOpLTPq-93" value="（1）内置高性能推理接口服务框架；&lt;br&gt;（2）初期阶段：链路空载性能控制在50ms以内；" style="shape=partialRectangle;html=1;whiteSpace=wrap;connectable=0;fillColor=none;top=0;left=0;bottom=0;right=0;overflow=hidden;align=left;" vertex="1" parent="G5nIuUwNsv8SvUOpLTPq-91">
          <mxGeometry x="319" width="323" height="36" as="geometry">
            <mxRectangle width="323" height="36" as="alternateBounds" />
          </mxGeometry>
        </mxCell>
        <mxCell id="G5nIuUwNsv8SvUOpLTPq-94" style="shape=partialRectangle;html=1;whiteSpace=wrap;collapsible=0;dropTarget=0;pointerEvents=0;fillColor=none;top=0;left=0;bottom=0;right=0;points=[[0,0.5],[1,0.5]];portConstraint=eastwest;align=left;" vertex="1" parent="G5nIuUwNsv8SvUOpLTPq-84">
          <mxGeometry y="102" width="642.19" height="88" as="geometry" />
        </mxCell>
        <mxCell id="G5nIuUwNsv8SvUOpLTPq-95" value="接口服务的稳定性（上线后，出现问题能够及时反馈告知，并能保留现场、日志追溯）" style="shape=partialRectangle;html=1;whiteSpace=wrap;connectable=0;fillColor=none;top=0;left=0;bottom=0;right=0;overflow=hidden;align=left;" vertex="1" parent="G5nIuUwNsv8SvUOpLTPq-94">
          <mxGeometry width="319" height="88" as="geometry">
            <mxRectangle width="319" height="88" as="alternateBounds" />
          </mxGeometry>
        </mxCell>
        <mxCell id="G5nIuUwNsv8SvUOpLTPq-96" value="（1）监控（资源利用率、访问量、响应时长、处理日志）&lt;br&gt;告警（接口响应延时、失败）；&lt;br&gt;（2）&lt;span&gt;服务异常，多实例高可用的资源保障；&lt;/span&gt;&lt;div&gt;（3）自动回滚：自动回滚规则，可设定规则，做到自动化的上线异常补救措施。&lt;/div&gt;" style="shape=partialRectangle;html=1;whiteSpace=wrap;connectable=0;fillColor=none;top=0;left=0;bottom=0;right=0;overflow=hidden;align=left;" vertex="1" parent="G5nIuUwNsv8SvUOpLTPq-94">
          <mxGeometry x="319" width="323" height="88" as="geometry">
            <mxRectangle width="323" height="88" as="alternateBounds" />
          </mxGeometry>
        </mxCell>
        <mxCell id="G5nIuUwNsv8SvUOpLTPq-97" style="shape=partialRectangle;html=1;whiteSpace=wrap;collapsible=0;dropTarget=0;pointerEvents=0;fillColor=none;top=0;left=0;bottom=0;right=0;points=[[0,0.5],[1,0.5]];portConstraint=eastwest;align=left;" vertex="1" parent="G5nIuUwNsv8SvUOpLTPq-84">
          <mxGeometry y="190" width="642.19" height="40" as="geometry" />
        </mxCell>
        <mxCell id="G5nIuUwNsv8SvUOpLTPq-98" value="高并发场景" style="shape=partialRectangle;html=1;whiteSpace=wrap;connectable=0;fillColor=none;top=0;left=0;bottom=0;right=0;overflow=hidden;align=left;" vertex="1" parent="G5nIuUwNsv8SvUOpLTPq-97">
          <mxGeometry width="319" height="40" as="geometry">
            <mxRectangle width="319" height="40" as="alternateBounds" />
          </mxGeometry>
        </mxCell>
        <mxCell id="G5nIuUwNsv8SvUOpLTPq-99" value="（1）实例数量调整（手动）、（自动），如双11场景；&lt;br&gt;（2）高并发请求队列，缓存策略；" style="shape=partialRectangle;html=1;whiteSpace=wrap;connectable=0;fillColor=none;top=0;left=0;bottom=0;right=0;overflow=hidden;align=left;" vertex="1" parent="G5nIuUwNsv8SvUOpLTPq-97">
          <mxGeometry x="319" width="323" height="40" as="geometry">
            <mxRectangle width="323" height="40" as="alternateBounds" />
          </mxGeometry>
        </mxCell>
        <mxCell id="G5nIuUwNsv8SvUOpLTPq-100" style="shape=partialRectangle;html=1;whiteSpace=wrap;collapsible=0;dropTarget=0;pointerEvents=0;fillColor=none;top=0;left=0;bottom=0;right=0;points=[[0,0.5],[1,0.5]];portConstraint=eastwest;" vertex="1" parent="G5nIuUwNsv8SvUOpLTPq-84">
          <mxGeometry y="230" width="642.19" height="28" as="geometry" />
        </mxCell>
        <mxCell id="G5nIuUwNsv8SvUOpLTPq-101" value="（版本迭代）接口在线更新" style="shape=partialRectangle;html=1;whiteSpace=wrap;connectable=0;fillColor=none;top=0;left=0;bottom=0;right=0;overflow=hidden;align=left;" vertex="1" parent="G5nIuUwNsv8SvUOpLTPq-100">
          <mxGeometry width="319" height="28" as="geometry">
            <mxRectangle width="319" height="28" as="alternateBounds" />
          </mxGeometry>
        </mxCell>
        <mxCell id="G5nIuUwNsv8SvUOpLTPq-102" value="滚动部署" style="shape=partialRectangle;html=1;whiteSpace=wrap;connectable=0;fillColor=none;top=0;left=0;bottom=0;right=0;overflow=hidden;align=left;" vertex="1" parent="G5nIuUwNsv8SvUOpLTPq-100">
          <mxGeometry x="319" width="323" height="28" as="geometry">
            <mxRectangle width="323" height="28" as="alternateBounds" />
          </mxGeometry>
        </mxCell>
        <mxCell id="G5nIuUwNsv8SvUOpLTPq-103" style="shape=partialRectangle;html=1;whiteSpace=wrap;collapsible=0;dropTarget=0;pointerEvents=0;fillColor=none;top=0;left=0;bottom=0;right=0;points=[[0,0.5],[1,0.5]];portConstraint=eastwest;" vertex="1" parent="G5nIuUwNsv8SvUOpLTPq-84">
          <mxGeometry y="258" width="642.19" height="20" as="geometry" />
        </mxCell>
        <mxCell id="G5nIuUwNsv8SvUOpLTPq-104" value="（版本迭代）顺丰云发版流程复杂" style="shape=partialRectangle;html=1;whiteSpace=wrap;connectable=0;fillColor=none;top=0;left=0;bottom=0;right=0;overflow=hidden;align=left;" vertex="1" parent="G5nIuUwNsv8SvUOpLTPq-103">
          <mxGeometry width="319" height="20" as="geometry">
            <mxRectangle width="319" height="20" as="alternateBounds" />
          </mxGeometry>
        </mxCell>
        <mxCell id="G5nIuUwNsv8SvUOpLTPq-105" value="适用AI模型发布的简化流程" style="shape=partialRectangle;html=1;whiteSpace=wrap;connectable=0;fillColor=none;top=0;left=0;bottom=0;right=0;overflow=hidden;align=left;" vertex="1" parent="G5nIuUwNsv8SvUOpLTPq-103">
          <mxGeometry x="319" width="323" height="20" as="geometry">
            <mxRectangle width="323" height="20" as="alternateBounds" />
          </mxGeometry>
        </mxCell>
        <mxCell id="G5nIuUwNsv8SvUOpLTPq-106" style="shape=partialRectangle;html=1;whiteSpace=wrap;collapsible=0;dropTarget=0;pointerEvents=0;fillColor=none;top=0;left=0;bottom=0;right=0;points=[[0,0.5],[1,0.5]];portConstraint=eastwest;" vertex="1" parent="G5nIuUwNsv8SvUOpLTPq-84">
          <mxGeometry y="278" width="642.19" height="33" as="geometry" />
        </mxCell>
        <mxCell id="G5nIuUwNsv8SvUOpLTPq-107" value="&lt;font color=&quot;#0000ff&quot;&gt;A/B分流&lt;/font&gt;" style="shape=partialRectangle;html=1;whiteSpace=wrap;connectable=0;fillColor=none;top=0;left=0;bottom=0;right=0;overflow=hidden;align=left;" vertex="1" parent="G5nIuUwNsv8SvUOpLTPq-106">
          <mxGeometry width="319" height="33" as="geometry">
            <mxRectangle width="319" height="33" as="alternateBounds" />
          </mxGeometry>
        </mxCell>
        <mxCell id="G5nIuUwNsv8SvUOpLTPq-108" value="&lt;font color=&quot;#0000ff&quot;&gt;A/B业务规则分流（还需细化可产品化场景）&lt;/font&gt;" style="shape=partialRectangle;html=1;whiteSpace=wrap;connectable=0;fillColor=none;top=0;left=0;bottom=0;right=0;overflow=hidden;align=left;" vertex="1" parent="G5nIuUwNsv8SvUOpLTPq-106">
          <mxGeometry x="319" width="323" height="33" as="geometry">
            <mxRectangle width="323" height="33" as="alternateBounds" />
          </mxGeometry>
        </mxCell>
        <mxCell id="G5nIuUwNsv8SvUOpLTPq-109" style="shape=partialRectangle;html=1;whiteSpace=wrap;collapsible=0;dropTarget=0;pointerEvents=0;fillColor=none;top=0;left=0;bottom=0;right=0;points=[[0,0.5],[1,0.5]];portConstraint=eastwest;" vertex="1" parent="G5nIuUwNsv8SvUOpLTPq-84">
          <mxGeometry y="311" width="642.19" height="20" as="geometry" />
        </mxCell>
        <mxCell id="G5nIuUwNsv8SvUOpLTPq-110" value="&lt;font color=&quot;#3333ff&quot;&gt;模型自动更新&lt;/font&gt;" style="shape=partialRectangle;html=1;whiteSpace=wrap;connectable=0;fillColor=none;top=0;left=0;bottom=0;right=0;overflow=hidden;align=left;" vertex="1" parent="G5nIuUwNsv8SvUOpLTPq-109">
          <mxGeometry width="319" height="20" as="geometry">
            <mxRectangle width="319" height="20" as="alternateBounds" />
          </mxGeometry>
        </mxCell>
        <mxCell id="G5nIuUwNsv8SvUOpLTPq-111" value="自动测试、自动上线" style="shape=partialRectangle;html=1;whiteSpace=wrap;connectable=0;fillColor=none;top=0;left=0;bottom=0;right=0;overflow=hidden;strokeColor=#3333FF;fontColor=#3333FF;align=left;" vertex="1" parent="G5nIuUwNsv8SvUOpLTPq-109">
          <mxGeometry x="319" width="323" height="20" as="geometry">
            <mxRectangle width="323" height="20" as="alternateBounds" />
          </mxGeometry>
        </mxCell>
        <mxCell id="G5nIuUwNsv8SvUOpLTPq-112" style="shape=partialRectangle;html=1;whiteSpace=wrap;collapsible=0;dropTarget=0;pointerEvents=0;fillColor=none;top=0;left=0;bottom=0;right=0;points=[[0,0.5],[1,0.5]];portConstraint=eastwest;fontColor=#FF3333;" vertex="1" parent="G5nIuUwNsv8SvUOpLTPq-84">
          <mxGeometry y="331" width="642.19" height="20" as="geometry" />
        </mxCell>
        <mxCell id="G5nIuUwNsv8SvUOpLTPq-113" value="&lt;font color=&quot;#ff3333&quot;&gt;（补充）日志打点：请求处理节点+耗时&lt;/font&gt;" style="shape=partialRectangle;html=1;whiteSpace=wrap;connectable=0;fillColor=none;top=0;left=0;bottom=0;right=0;overflow=hidden;align=left;" vertex="1" parent="G5nIuUwNsv8SvUOpLTPq-112">
          <mxGeometry width="319" height="20" as="geometry">
            <mxRectangle width="319" height="20" as="alternateBounds" />
          </mxGeometry>
        </mxCell>
        <mxCell id="G5nIuUwNsv8SvUOpLTPq-114" value="&lt;font color=&quot;#000000&quot;&gt;处理链条细拆，记录耗时+日志，快速问题定位&lt;/font&gt;" style="shape=partialRectangle;html=1;whiteSpace=wrap;connectable=0;fillColor=none;top=0;left=0;bottom=0;right=0;overflow=hidden;strokeColor=#3333FF;fontColor=#3333FF;align=left;" vertex="1" parent="G5nIuUwNsv8SvUOpLTPq-112">
          <mxGeometry x="319" width="323" height="20" as="geometry">
            <mxRectangle width="323" height="20" as="alternateBounds" />
          </mxGeometry>
        </mxCell>
        <mxCell id="G5nIuUwNsv8SvUOpLTPq-115" style="shape=partialRectangle;html=1;whiteSpace=wrap;collapsible=0;dropTarget=0;pointerEvents=0;fillColor=none;top=0;left=0;bottom=0;right=0;points=[[0,0.5],[1,0.5]];portConstraint=eastwest;" vertex="1" parent="G5nIuUwNsv8SvUOpLTPq-84">
          <mxGeometry y="351" width="642.19" height="20" as="geometry" />
        </mxCell>
        <mxCell id="G5nIuUwNsv8SvUOpLTPq-116" value="&lt;font color=&quot;#ff3333&quot;&gt;（补充）测试资源合理释放&lt;/font&gt;" style="shape=partialRectangle;html=1;whiteSpace=wrap;connectable=0;fillColor=none;top=0;left=0;bottom=0;right=0;overflow=hidden;align=left;" vertex="1" parent="G5nIuUwNsv8SvUOpLTPq-115">
          <mxGeometry width="319" height="20" as="geometry">
            <mxRectangle width="319" height="20" as="alternateBounds" />
          </mxGeometry>
        </mxCell>
        <mxCell id="G5nIuUwNsv8SvUOpLTPq-117" value="&lt;font color=&quot;#000000&quot;&gt;测试资源自动释放策略功能&lt;/font&gt;" style="shape=partialRectangle;html=1;whiteSpace=wrap;connectable=0;fillColor=none;top=0;left=0;bottom=0;right=0;overflow=hidden;strokeColor=#3333FF;fontColor=#3333FF;align=left;" vertex="1" parent="G5nIuUwNsv8SvUOpLTPq-115">
          <mxGeometry x="319" width="323" height="20" as="geometry">
            <mxRectangle width="323" height="20" as="alternateBounds" />
          </mxGeometry>
        </mxCell>
        <mxCell id="G5nIuUwNsv8SvUOpLTPq-118" style="shape=partialRectangle;html=1;whiteSpace=wrap;collapsible=0;dropTarget=0;pointerEvents=0;fillColor=none;top=0;left=0;bottom=0;right=0;points=[[0,0.5],[1,0.5]];portConstraint=eastwest;" vertex="1" parent="G5nIuUwNsv8SvUOpLTPq-84">
          <mxGeometry y="371" width="642.19" height="20" as="geometry" />
        </mxCell>
        <mxCell id="G5nIuUwNsv8SvUOpLTPq-119" value="&lt;font color=&quot;#ff3333&quot;&gt;（补充）&lt;span style=&quot;font-size: 14px ; background-color: rgb(244 , 246 , 250)&quot;&gt;发布过程记录&lt;/span&gt;&lt;/font&gt;" style="shape=partialRectangle;html=1;whiteSpace=wrap;connectable=0;fillColor=none;top=0;left=0;bottom=0;right=0;overflow=hidden;align=left;" vertex="1" parent="G5nIuUwNsv8SvUOpLTPq-118">
          <mxGeometry width="319" height="20" as="geometry">
            <mxRectangle width="319" height="20" as="alternateBounds" />
          </mxGeometry>
        </mxCell>
        <mxCell id="G5nIuUwNsv8SvUOpLTPq-120" value="&lt;span style=&quot;color: rgb(2 , 15 , 34) ; font-family: , &amp;#34;microsoft yahei&amp;#34; , &amp;#34;arial&amp;#34; , sans-serif ; font-size: 14px ; background-color: rgb(244 , 246 , 250)&quot;&gt;后台发布流程记录；流水线元信息记录；&lt;/span&gt;" style="shape=partialRectangle;html=1;whiteSpace=wrap;connectable=0;fillColor=none;top=0;left=0;bottom=0;right=0;overflow=hidden;strokeColor=#3333FF;fontColor=#3333FF;align=left;" vertex="1" parent="G5nIuUwNsv8SvUOpLTPq-118">
          <mxGeometry x="319" width="323" height="20" as="geometry">
            <mxRectangle width="323" height="20" as="alternateBounds" />
          </mxGeometry>
        </mxCell>
        <mxCell id="G5nIuUwNsv8SvUOpLTPq-121" value="测试人员" style="text;html=1;strokeColor=none;fillColor=none;align=center;verticalAlign=middle;whiteSpace=wrap;rounded=0;labelBackgroundColor=#ffffff;sketch=0;fontColor=none;" vertex="1" parent="1">
          <mxGeometry x="410.81" y="1485" width="57" height="20" as="geometry" />
        </mxCell>
        <mxCell id="G5nIuUwNsv8SvUOpLTPq-122" style="edgeStyle=orthogonalEdgeStyle;curved=0;rounded=1;sketch=0;orthogonalLoop=1;jettySize=auto;html=1;entryX=0.5;entryY=0;entryDx=0;entryDy=0;fontColor=none;dashed=1;" edge="1" parent="1" source="G5nIuUwNsv8SvUOpLTPq-52" target="G5nIuUwNsv8SvUOpLTPq-121">
          <mxGeometry relative="1" as="geometry" />
        </mxCell>
        <mxCell id="G5nIuUwNsv8SvUOpLTPq-123" value="列表管理" style="rounded=0;whiteSpace=wrap;html=1;align=left;fillColor=#dae8fc;strokeColor=#6c8ebf;" vertex="1" parent="1">
          <mxGeometry x="275.32" y="1723.1200000000001" width="62.62" height="20" as="geometry" />
        </mxCell>
        <mxCell id="G5nIuUwNsv8SvUOpLTPq-124" value="模型管理" style="text;html=1;strokeColor=none;fillColor=none;align=center;verticalAlign=middle;whiteSpace=wrap;rounded=0;labelBackgroundColor=#ffffff;sketch=0;fontColor=none;" vertex="1" parent="1">
          <mxGeometry x="272.94" y="1698.5000000000002" width="60" height="20" as="geometry" />
        </mxCell>
        <mxCell id="G5nIuUwNsv8SvUOpLTPq-125" value="新建模型" style="text;html=1;strokeColor=none;fillColor=none;align=center;verticalAlign=middle;whiteSpace=wrap;rounded=0;labelBackgroundColor=#ffffff;sketch=0;fontColor=none;" vertex="1" parent="1">
          <mxGeometry x="173.69" y="1698.5" width="60" height="20" as="geometry" />
        </mxCell>
        <mxCell id="G5nIuUwNsv8SvUOpLTPq-126" value="模型测试" style="text;html=1;strokeColor=none;fillColor=none;align=center;verticalAlign=middle;whiteSpace=wrap;rounded=0;labelBackgroundColor=#ffffff;sketch=0;fontColor=none;" vertex="1" parent="1">
          <mxGeometry x="361.94" y="1698.5" width="60" height="20" as="geometry" />
        </mxCell>
        <mxCell id="G5nIuUwNsv8SvUOpLTPq-127" value="日志" style="rounded=0;whiteSpace=wrap;html=1;align=left;fillColor=#dae8fc;strokeColor=#6c8ebf;" vertex="1" parent="1">
          <mxGeometry x="361.94" y="1792.56" width="60" height="14.75" as="geometry" />
        </mxCell>
        <mxCell id="G5nIuUwNsv8SvUOpLTPq-128" value="服务管理" style="text;html=1;strokeColor=none;fillColor=none;align=center;verticalAlign=middle;whiteSpace=wrap;rounded=0;labelBackgroundColor=#ffffff;sketch=0;fontColor=none;" vertex="1" parent="1">
          <mxGeometry x="584.6199999999998" y="1724.5600000000002" width="60" height="20" as="geometry" />
        </mxCell>
        <mxCell id="G5nIuUwNsv8SvUOpLTPq-129" value="服务列表" style="rounded=0;whiteSpace=wrap;html=1;align=left;fillColor=#dae8fc;strokeColor=#6c8ebf;" vertex="1" parent="1">
          <mxGeometry x="586.1899999999999" y="1755.06" width="61.62" height="20" as="geometry" />
        </mxCell>
        <mxCell id="G5nIuUwNsv8SvUOpLTPq-130" value="版本管理" style="rounded=0;whiteSpace=wrap;html=1;align=left;fillColor=#dae8fc;strokeColor=#6c8ebf;" vertex="1" parent="1">
          <mxGeometry x="586.1899999999999" y="1784.56" width="61.62" height="20" as="geometry" />
        </mxCell>
        <mxCell id="G5nIuUwNsv8SvUOpLTPq-131" value="服务信息" style="text;html=1;strokeColor=none;fillColor=none;align=center;verticalAlign=middle;whiteSpace=wrap;rounded=0;labelBackgroundColor=#ffffff;sketch=0;fontColor=none;" vertex="1" parent="1">
          <mxGeometry x="679.9999999999999" y="1690.0000000000002" width="60" height="20" as="geometry" />
        </mxCell>
        <mxCell id="G5nIuUwNsv8SvUOpLTPq-132" value="基本信息" style="rounded=0;whiteSpace=wrap;html=1;align=left;fillColor=#dae8fc;strokeColor=#6c8ebf;" vertex="1" parent="1">
          <mxGeometry x="679.1899999999999" y="1720" width="61.62" height="20" as="geometry" />
        </mxCell>
        <mxCell id="G5nIuUwNsv8SvUOpLTPq-133" value="接口信息" style="rounded=0;whiteSpace=wrap;html=1;align=left;fillColor=#dae8fc;strokeColor=#6c8ebf;" vertex="1" parent="1">
          <mxGeometry x="678.5699999999999" y="1759.74" width="61.62" height="20" as="geometry" />
        </mxCell>
        <mxCell id="G5nIuUwNsv8SvUOpLTPq-134" value="监控信息" style="text;html=1;strokeColor=none;fillColor=none;align=center;verticalAlign=middle;whiteSpace=wrap;rounded=0;labelBackgroundColor=#ffffff;sketch=0;fontColor=none;" vertex="1" parent="1">
          <mxGeometry x="766.1899999999999" y="1690.0000000000002" width="60" height="20" as="geometry" />
        </mxCell>
        <mxCell id="G5nIuUwNsv8SvUOpLTPq-135" value="资源使用监控" style="rounded=0;whiteSpace=wrap;html=1;align=left;fillColor=#dae8fc;strokeColor=#6c8ebf;" vertex="1" parent="1">
          <mxGeometry x="762.1899999999999" y="1759.74" width="74.62" height="20" as="geometry" />
        </mxCell>
        <mxCell id="G5nIuUwNsv8SvUOpLTPq-136" value="访问日志" style="rounded=0;whiteSpace=wrap;html=1;align=left;fillColor=#dae8fc;strokeColor=#6c8ebf;" vertex="1" parent="1">
          <mxGeometry x="762.1899999999999" y="1800.5" width="74.62" height="20" as="geometry" />
        </mxCell>
        <mxCell id="G5nIuUwNsv8SvUOpLTPq-137" value="访问策略" style="text;html=1;strokeColor=none;fillColor=none;align=center;verticalAlign=middle;whiteSpace=wrap;rounded=0;labelBackgroundColor=#ffffff;sketch=0;fontColor=none;" vertex="1" parent="1">
          <mxGeometry x="671.3499999999999" y="1853.0000000000005" width="60" height="20" as="geometry" />
        </mxCell>
        <mxCell id="G5nIuUwNsv8SvUOpLTPq-138" value="流量策略" style="text;html=1;strokeColor=none;fillColor=none;align=center;verticalAlign=middle;whiteSpace=wrap;rounded=0;labelBackgroundColor=#ffffff;sketch=0;fontColor=none;" vertex="1" parent="1">
          <mxGeometry x="753.8" y="1853.0000000000005" width="60" height="20" as="geometry" />
        </mxCell>
        <mxCell id="G5nIuUwNsv8SvUOpLTPq-139" value="资源释放策略" style="text;html=1;strokeColor=none;fillColor=none;align=center;verticalAlign=middle;whiteSpace=wrap;rounded=0;labelBackgroundColor=#ffffff;sketch=0;fontColor=none;" vertex="1" parent="1">
          <mxGeometry x="836.04" y="1853" width="77" height="20" as="geometry" />
        </mxCell>
        <mxCell id="G5nIuUwNsv8SvUOpLTPq-140" value="告警策略" style="text;html=1;strokeColor=none;fillColor=none;align=center;verticalAlign=middle;whiteSpace=wrap;rounded=0;labelBackgroundColor=#ffffff;sketch=0;fontColor=none;" vertex="1" parent="1">
          <mxGeometry x="926.04" y="1853.0000000000005" width="60" height="20" as="geometry" />
        </mxCell>
        <mxCell id="G5nIuUwNsv8SvUOpLTPq-141" value="操作功能" style="text;html=1;strokeColor=none;fillColor=none;align=center;verticalAlign=middle;whiteSpace=wrap;rounded=0;labelBackgroundColor=#ffffff;sketch=0;fontColor=none;" vertex="1" parent="1">
          <mxGeometry x="864.1899999999999" y="1690.0000000000002" width="60" height="20" as="geometry" />
        </mxCell>
        <mxCell id="G5nIuUwNsv8SvUOpLTPq-142" value="上/下线" style="rounded=0;whiteSpace=wrap;html=1;align=left;fillColor=#dae8fc;strokeColor=#6c8ebf;" vertex="1" parent="1">
          <mxGeometry x="865.25" y="1720" width="111.56" height="20" as="geometry" />
        </mxCell>
        <mxCell id="G5nIuUwNsv8SvUOpLTPq-143" value="重启-资源规格修改" style="rounded=0;whiteSpace=wrap;html=1;align=left;fillColor=#dae8fc;strokeColor=#6c8ebf;" vertex="1" parent="1">
          <mxGeometry x="864.1899999999999" y="1759.74" width="112.62" height="20" as="geometry" />
        </mxCell>
        <mxCell id="G5nIuUwNsv8SvUOpLTPq-144" value="" style="shape=curlyBracket;whiteSpace=wrap;html=1;rounded=1;labelBackgroundColor=#ffffff;sketch=0;fontColor=none;align=left;" vertex="1" parent="1">
          <mxGeometry x="650.81" y="1726" width="20" height="201" as="geometry" />
        </mxCell>
        <mxCell id="G5nIuUwNsv8SvUOpLTPq-145" value="&lt;font style=&quot;font-size: 8px&quot;&gt;接口封装方式&lt;/font&gt;" style="rounded=0;whiteSpace=wrap;html=1;align=center;verticalAlign=top;" vertex="1" parent="1">
          <mxGeometry x="175.69" y="1720" width="67.25" height="58.5" as="geometry" />
        </mxCell>
        <mxCell id="G5nIuUwNsv8SvUOpLTPq-146" value="&lt;font style=&quot;font-size: 8px&quot;&gt;内置接口封装&lt;/font&gt;" style="rounded=0;whiteSpace=wrap;html=1;align=left;fillColor=#dae8fc;strokeColor=#6c8ebf;" vertex="1" parent="1">
          <mxGeometry x="179.94" y="1740.86" width="60" height="12.64" as="geometry" />
        </mxCell>
        <mxCell id="G5nIuUwNsv8SvUOpLTPq-147" value="&lt;font style=&quot;font-size: 8px&quot;&gt;自定义接口封装&lt;/font&gt;" style="rounded=0;whiteSpace=wrap;html=1;align=left;fillColor=#dae8fc;strokeColor=#6c8ebf;" vertex="1" parent="1">
          <mxGeometry x="179.82" y="1758.24" width="60.12" height="12.64" as="geometry" />
        </mxCell>
        <mxCell id="G5nIuUwNsv8SvUOpLTPq-148" value="模型文件" style="rounded=0;whiteSpace=wrap;html=1;align=left;fillColor=#dae8fc;strokeColor=#6c8ebf;" vertex="1" parent="1">
          <mxGeometry x="175.69" y="1788" width="67.25" height="20" as="geometry" />
        </mxCell>
        <mxCell id="G5nIuUwNsv8SvUOpLTPq-149" value="环境信息" style="rounded=0;whiteSpace=wrap;html=1;align=left;fillColor=#dae8fc;strokeColor=#6c8ebf;" vertex="1" parent="1">
          <mxGeometry x="175.69" y="1841.5" width="67.25" height="20" as="geometry" />
        </mxCell>
        <mxCell id="G5nIuUwNsv8SvUOpLTPq-150" value="基础信息" style="rounded=0;whiteSpace=wrap;html=1;align=left;fillColor=#dae8fc;strokeColor=#6c8ebf;" vertex="1" parent="1">
          <mxGeometry x="175.69" y="1814.5" width="67.25" height="20" as="geometry" />
        </mxCell>
        <mxCell id="G5nIuUwNsv8SvUOpLTPq-151" value="Pool" style="swimlane;html=1;childLayout=stackLayout;resizeParent=1;resizeParentMax=0;horizontal=1;startSize=20;horizontalStack=0;rounded=0;labelBackgroundColor=#ffffff;sketch=0;fontColor=none;align=center;" vertex="1" parent="1">
          <mxGeometry x="129.81" y="2095" width="1610" height="870" as="geometry" />
        </mxCell>
        <mxCell id="G5nIuUwNsv8SvUOpLTPq-152" value="算法工程师" style="swimlane;html=1;startSize=20;horizontal=0;" vertex="1" parent="G5nIuUwNsv8SvUOpLTPq-151">
          <mxGeometry y="20" width="1610" height="721" as="geometry" />
        </mxCell>
        <mxCell id="G5nIuUwNsv8SvUOpLTPq-153" style="edgeStyle=orthogonalEdgeStyle;curved=0;rounded=1;sketch=0;orthogonalLoop=1;jettySize=auto;html=1;fontColor=none;" edge="1" parent="G5nIuUwNsv8SvUOpLTPq-152" source="G5nIuUwNsv8SvUOpLTPq-154" target="G5nIuUwNsv8SvUOpLTPq-158">
          <mxGeometry relative="1" as="geometry" />
        </mxCell>
        <mxCell id="G5nIuUwNsv8SvUOpLTPq-154" value="Server训练模型" style="rounded=0;whiteSpace=wrap;html=1;labelBackgroundColor=#ffffff;sketch=0;fontColor=none;align=left;" vertex="1" parent="G5nIuUwNsv8SvUOpLTPq-152">
          <mxGeometry x="125" y="78" width="95" height="30" as="geometry" />
        </mxCell>
        <mxCell id="G5nIuUwNsv8SvUOpLTPq-155" style="edgeStyle=orthogonalEdgeStyle;curved=0;rounded=1;sketch=0;orthogonalLoop=1;jettySize=auto;html=1;fontColor=none;" edge="1" parent="G5nIuUwNsv8SvUOpLTPq-152" source="G5nIuUwNsv8SvUOpLTPq-156" target="G5nIuUwNsv8SvUOpLTPq-154">
          <mxGeometry relative="1" as="geometry" />
        </mxCell>
        <mxCell id="G5nIuUwNsv8SvUOpLTPq-156" value="开始" style="rounded=1;whiteSpace=wrap;html=1;labelBackgroundColor=#ffffff;sketch=0;fontColor=none;align=center;arcSize=50;" vertex="1" parent="G5nIuUwNsv8SvUOpLTPq-152">
          <mxGeometry x="38.01" y="80" width="42.5" height="25" as="geometry" />
        </mxCell>
        <mxCell id="G5nIuUwNsv8SvUOpLTPq-157" style="edgeStyle=orthogonalEdgeStyle;curved=0;rounded=1;sketch=0;orthogonalLoop=1;jettySize=auto;html=1;entryX=0;entryY=0.5;entryDx=0;entryDy=0;fontColor=none;" edge="1" parent="G5nIuUwNsv8SvUOpLTPq-152" source="G5nIuUwNsv8SvUOpLTPq-158" target="G5nIuUwNsv8SvUOpLTPq-168">
          <mxGeometry relative="1" as="geometry" />
        </mxCell>
        <mxCell id="G5nIuUwNsv8SvUOpLTPq-158" value="沙盒文件存储区" style="rounded=0;whiteSpace=wrap;html=1;labelBackgroundColor=#ffffff;sketch=0;fontColor=none;align=left;" vertex="1" parent="G5nIuUwNsv8SvUOpLTPq-152">
          <mxGeometry x="275" y="78" width="50.5" height="30" as="geometry" />
        </mxCell>
        <mxCell id="G5nIuUwNsv8SvUOpLTPq-159" style="edgeStyle=orthogonalEdgeStyle;curved=0;rounded=1;sketch=0;orthogonalLoop=1;jettySize=auto;html=1;entryX=0;entryY=0.5;entryDx=0;entryDy=0;fontColor=none;" edge="1" parent="G5nIuUwNsv8SvUOpLTPq-152" source="G5nIuUwNsv8SvUOpLTPq-160" target="G5nIuUwNsv8SvUOpLTPq-158">
          <mxGeometry relative="1" as="geometry" />
        </mxCell>
        <mxCell id="G5nIuUwNsv8SvUOpLTPq-160" value="沙盒任务" style="rounded=0;whiteSpace=wrap;html=1;labelBackgroundColor=#ffffff;sketch=0;fontColor=none;align=left;" vertex="1" parent="G5nIuUwNsv8SvUOpLTPq-152">
          <mxGeometry x="125" y="120" width="65" height="30" as="geometry" />
        </mxCell>
        <mxCell id="G5nIuUwNsv8SvUOpLTPq-161" style="edgeStyle=orthogonalEdgeStyle;curved=0;rounded=1;sketch=0;orthogonalLoop=1;jettySize=auto;html=1;entryX=0;entryY=0.5;entryDx=0;entryDy=0;fontColor=none;" edge="1" parent="G5nIuUwNsv8SvUOpLTPq-152" source="G5nIuUwNsv8SvUOpLTPq-162" target="G5nIuUwNsv8SvUOpLTPq-158">
          <mxGeometry relative="1" as="geometry" />
        </mxCell>
        <mxCell id="G5nIuUwNsv8SvUOpLTPq-162" value="工作流&lt;span style=&quot;color: rgba(0 , 0 , 0 , 0) ; font-family: monospace ; font-size: 0px ; background-color: rgb(248 , 249 , 250)&quot;&gt;%3CmxGraphModel%3E%3Croot%3E%3CmxCell%20id%3D%220%22%2F%3E%3CmxCell%20id%3D%221%22%20parent%3D%220%22%2F%3E%3CmxCell%20id%3D%222%22%20value%3D%22%E6%B2%99%E7%9B%92%E4%BB%BB%E5%8A%A1%22%20style%3D%22rounded%3D0%3BwhiteSpace%3Dwrap%3Bhtml%3D1%3BlabelBackgroundColor%3D%23ffffff%3Bsketch%3D0%3BfontColor%3Dnone%3Balign%3Dleft%3B%22%20vertex%3D%221%22%20parent%3D%221%22%3E%3CmxGeometry%20x%3D%22340%22%20y%3D%222360%22%20width%3D%2295%22%20height%3D%2230%22%20as%3D%22geometry%22%2F%3E%3C%2FmxCell%3E%3C%2Froot%3E%3C%2FmxGraphModel%3E&lt;/span&gt;" style="rounded=0;whiteSpace=wrap;html=1;labelBackgroundColor=#ffffff;sketch=0;fontColor=none;align=left;" vertex="1" parent="G5nIuUwNsv8SvUOpLTPq-152">
          <mxGeometry x="125" y="160" width="65" height="30" as="geometry" />
        </mxCell>
        <mxCell id="G5nIuUwNsv8SvUOpLTPq-163" style="edgeStyle=orthogonalEdgeStyle;curved=0;rounded=1;sketch=0;orthogonalLoop=1;jettySize=auto;html=1;entryX=0;entryY=0.5;entryDx=0;entryDy=0;fontColor=none;" edge="1" parent="G5nIuUwNsv8SvUOpLTPq-152" source="G5nIuUwNsv8SvUOpLTPq-164" target="G5nIuUwNsv8SvUOpLTPq-158">
          <mxGeometry relative="1" as="geometry" />
        </mxCell>
        <mxCell id="G5nIuUwNsv8SvUOpLTPq-164" value="本地上传" style="rounded=0;whiteSpace=wrap;html=1;labelBackgroundColor=#ffffff;sketch=0;fontColor=none;align=left;" vertex="1" parent="G5nIuUwNsv8SvUOpLTPq-152">
          <mxGeometry x="125" y="200" width="65" height="30" as="geometry" />
        </mxCell>
        <mxCell id="G5nIuUwNsv8SvUOpLTPq-165" value="&lt;font style=&quot;font-size: 8px&quot;&gt;保存至&lt;/font&gt;" style="text;html=1;strokeColor=none;fillColor=none;align=center;verticalAlign=middle;whiteSpace=wrap;rounded=0;labelBackgroundColor=#ffffff;sketch=0;fontColor=none;" vertex="1" parent="G5nIuUwNsv8SvUOpLTPq-152">
          <mxGeometry x="227.63" y="70" width="40" height="20" as="geometry" />
        </mxCell>
        <mxCell id="G5nIuUwNsv8SvUOpLTPq-166" value="模型训练" style="swimlane;rounded=0;labelBackgroundColor=#ffffff;sketch=0;fontColor=none;align=left;" vertex="1" parent="G5nIuUwNsv8SvUOpLTPq-152">
          <mxGeometry x="346" y="1" width="704" height="720" as="geometry" />
        </mxCell>
        <mxCell id="G5nIuUwNsv8SvUOpLTPq-167" style="edgeStyle=orthogonalEdgeStyle;curved=0;rounded=1;sketch=0;orthogonalLoop=1;jettySize=auto;html=1;fontColor=none;" edge="1" parent="G5nIuUwNsv8SvUOpLTPq-166" source="G5nIuUwNsv8SvUOpLTPq-168" target="G5nIuUwNsv8SvUOpLTPq-170">
          <mxGeometry relative="1" as="geometry" />
        </mxCell>
        <mxCell id="G5nIuUwNsv8SvUOpLTPq-168" value="新建模型" style="rounded=0;whiteSpace=wrap;html=1;labelBackgroundColor=#ffffff;sketch=0;fontColor=none;align=left;" vertex="1" parent="G5nIuUwNsv8SvUOpLTPq-166">
          <mxGeometry x="47.88" y="77.5" width="82.12" height="30" as="geometry" />
        </mxCell>
        <mxCell id="G5nIuUwNsv8SvUOpLTPq-169" style="edgeStyle=orthogonalEdgeStyle;curved=0;rounded=1;sketch=0;orthogonalLoop=1;jettySize=auto;html=1;entryX=0.487;entryY=0.143;entryDx=0;entryDy=0;entryPerimeter=0;fontColor=none;" edge="1" parent="G5nIuUwNsv8SvUOpLTPq-166" source="G5nIuUwNsv8SvUOpLTPq-170" target="G5nIuUwNsv8SvUOpLTPq-172">
          <mxGeometry relative="1" as="geometry" />
        </mxCell>
        <mxCell id="G5nIuUwNsv8SvUOpLTPq-170" value="注册基本信息" style="rounded=0;whiteSpace=wrap;html=1;labelBackgroundColor=#ffffff;sketch=0;fontColor=none;align=left;" vertex="1" parent="G5nIuUwNsv8SvUOpLTPq-166">
          <mxGeometry x="47.88" y="160" width="82.12" height="30" as="geometry" />
        </mxCell>
        <mxCell id="G5nIuUwNsv8SvUOpLTPq-171" style="edgeStyle=orthogonalEdgeStyle;curved=0;rounded=1;sketch=0;orthogonalLoop=1;jettySize=auto;html=1;entryX=0.5;entryY=0;entryDx=0;entryDy=0;fontColor=none;" edge="1" parent="G5nIuUwNsv8SvUOpLTPq-166" source="G5nIuUwNsv8SvUOpLTPq-172" target="G5nIuUwNsv8SvUOpLTPq-174">
          <mxGeometry relative="1" as="geometry" />
        </mxCell>
        <mxCell id="G5nIuUwNsv8SvUOpLTPq-172" value="接口封装方式" style="rhombus;whiteSpace=wrap;html=1;rounded=0;labelBackgroundColor=#ffffff;sketch=0;fontColor=none;align=center;" vertex="1" parent="G5nIuUwNsv8SvUOpLTPq-166">
          <mxGeometry x="49.94" y="240" width="80" height="70" as="geometry" />
        </mxCell>
        <mxCell id="G5nIuUwNsv8SvUOpLTPq-173" style="edgeStyle=orthogonalEdgeStyle;curved=0;rounded=1;sketch=0;orthogonalLoop=1;jettySize=auto;html=1;fontColor=none;entryX=0.5;entryY=0;entryDx=0;entryDy=0;" edge="1" parent="G5nIuUwNsv8SvUOpLTPq-166" source="G5nIuUwNsv8SvUOpLTPq-174" target="G5nIuUwNsv8SvUOpLTPq-176">
          <mxGeometry relative="1" as="geometry">
            <mxPoint x="135" y="609" as="targetPoint" />
            <Array as="points">
              <mxPoint x="90" y="555" />
              <mxPoint x="130" y="555" />
            </Array>
          </mxGeometry>
        </mxCell>
        <mxCell id="G5nIuUwNsv8SvUOpLTPq-174" value="选择模型文件+内置AI框架" style="rounded=0;whiteSpace=wrap;html=1;labelBackgroundColor=#ffffff;sketch=0;fontColor=none;align=left;" vertex="1" parent="G5nIuUwNsv8SvUOpLTPq-166">
          <mxGeometry x="49" y="380" width="82.12" height="30" as="geometry" />
        </mxCell>
        <mxCell id="G5nIuUwNsv8SvUOpLTPq-175" style="edgeStyle=orthogonalEdgeStyle;curved=0;rounded=1;sketch=0;orthogonalLoop=1;jettySize=auto;html=1;fontColor=none;" edge="1" parent="G5nIuUwNsv8SvUOpLTPq-166" source="G5nIuUwNsv8SvUOpLTPq-176">
          <mxGeometry relative="1" as="geometry">
            <mxPoint x="224" y="625" as="targetPoint" />
          </mxGeometry>
        </mxCell>
        <mxCell id="G5nIuUwNsv8SvUOpLTPq-176" value="模型状态&lt;br&gt;&lt;font color=&quot;#3333ff&quot;&gt;（待测试）&lt;/font&gt;" style="rounded=0;whiteSpace=wrap;html=1;labelBackgroundColor=#ffffff;sketch=0;fontColor=none;align=center;" vertex="1" parent="G5nIuUwNsv8SvUOpLTPq-166">
          <mxGeometry x="70" y="610" width="120" height="30" as="geometry" />
        </mxCell>
        <mxCell id="G5nIuUwNsv8SvUOpLTPq-177" style="edgeStyle=orthogonalEdgeStyle;curved=0;rounded=1;sketch=0;orthogonalLoop=1;jettySize=auto;html=1;entryX=0.5;entryY=0;entryDx=0;entryDy=0;fontColor=none;" edge="1" parent="G5nIuUwNsv8SvUOpLTPq-166" source="G5nIuUwNsv8SvUOpLTPq-178" target="G5nIuUwNsv8SvUOpLTPq-176">
          <mxGeometry relative="1" as="geometry">
            <Array as="points">
              <mxPoint x="181" y="555" />
              <mxPoint x="130" y="555" />
            </Array>
          </mxGeometry>
        </mxCell>
        <mxCell id="G5nIuUwNsv8SvUOpLTPq-178" value="选择镜像环境" style="rounded=0;whiteSpace=wrap;html=1;labelBackgroundColor=#ffffff;sketch=0;fontColor=none;align=left;" vertex="1" parent="G5nIuUwNsv8SvUOpLTPq-166">
          <mxGeometry x="138.9999999999999" y="450" width="82.12" height="30" as="geometry" />
        </mxCell>
        <mxCell id="G5nIuUwNsv8SvUOpLTPq-179" style="edgeStyle=orthogonalEdgeStyle;curved=0;rounded=1;sketch=0;orthogonalLoop=1;jettySize=auto;html=1;entryX=0.5;entryY=0;entryDx=0;entryDy=0;fontColor=none;" edge="1" parent="G5nIuUwNsv8SvUOpLTPq-166" target="G5nIuUwNsv8SvUOpLTPq-180">
          <mxGeometry relative="1" as="geometry">
            <mxPoint x="330.12" y="640" as="sourcePoint" />
          </mxGeometry>
        </mxCell>
        <mxCell id="G5nIuUwNsv8SvUOpLTPq-180" value="提供测试接口" style="rounded=0;whiteSpace=wrap;html=1;labelBackgroundColor=#ffffff;sketch=0;fontColor=none;align=center;" vertex="1" parent="G5nIuUwNsv8SvUOpLTPq-166">
          <mxGeometry x="292.12" y="684" width="76" height="30" as="geometry" />
        </mxCell>
        <mxCell id="G5nIuUwNsv8SvUOpLTPq-181" style="edgeStyle=orthogonalEdgeStyle;curved=0;rounded=1;sketch=0;orthogonalLoop=1;jettySize=auto;html=1;entryX=0.5;entryY=0;entryDx=0;entryDy=0;fontColor=none;dashed=1;" edge="1" parent="G5nIuUwNsv8SvUOpLTPq-166" source="G5nIuUwNsv8SvUOpLTPq-182" target="G5nIuUwNsv8SvUOpLTPq-172">
          <mxGeometry relative="1" as="geometry">
            <Array as="points">
              <mxPoint x="607" y="204" />
              <mxPoint x="90" y="204" />
            </Array>
          </mxGeometry>
        </mxCell>
        <mxCell id="G5nIuUwNsv8SvUOpLTPq-182" value="模型列表&lt;br&gt;&lt;font color=&quot;#009900&quot;&gt;（通过）&lt;/font&gt;" style="rounded=0;whiteSpace=wrap;html=1;labelBackgroundColor=#ffffff;sketch=0;fontColor=none;align=center;" vertex="1" parent="G5nIuUwNsv8SvUOpLTPq-166">
          <mxGeometry x="554" y="610" width="106" height="30" as="geometry" />
        </mxCell>
        <mxCell id="G5nIuUwNsv8SvUOpLTPq-183" value="编辑修改" style="text;html=1;strokeColor=none;fillColor=none;align=center;verticalAlign=middle;whiteSpace=wrap;rounded=0;labelBackgroundColor=#ffffff;sketch=0;fontColor=none;" vertex="1" parent="G5nIuUwNsv8SvUOpLTPq-166">
          <mxGeometry x="418" y="177" width="63" height="20" as="geometry" />
        </mxCell>
        <mxCell id="G5nIuUwNsv8SvUOpLTPq-184" value="部署失败" style="text;html=1;strokeColor=none;fillColor=none;align=center;verticalAlign=middle;whiteSpace=wrap;rounded=0;labelBackgroundColor=#ffffff;sketch=0;fontColor=none;" vertex="1" parent="G5nIuUwNsv8SvUOpLTPq-166">
          <mxGeometry x="330.12" y="574" width="68" height="20" as="geometry" />
        </mxCell>
        <mxCell id="G5nIuUwNsv8SvUOpLTPq-185" value="成功" style="text;html=1;strokeColor=none;fillColor=none;align=center;verticalAlign=middle;whiteSpace=wrap;rounded=0;labelBackgroundColor=#ffffff;sketch=0;fontColor=none;" vertex="1" parent="G5nIuUwNsv8SvUOpLTPq-166">
          <mxGeometry x="330.12" y="656.5" width="68" height="20" as="geometry" />
        </mxCell>
        <mxCell id="G5nIuUwNsv8SvUOpLTPq-186" value="测试部署" style="rhombus;whiteSpace=wrap;html=1;rounded=0;labelBackgroundColor=#ffffff;sketch=0;fontColor=none;align=center;" vertex="1" parent="G5nIuUwNsv8SvUOpLTPq-166">
          <mxGeometry x="292.12" y="605.5" width="80" height="37.5" as="geometry" />
        </mxCell>
        <mxCell id="G5nIuUwNsv8SvUOpLTPq-187" style="edgeStyle=orthogonalEdgeStyle;curved=0;rounded=1;sketch=0;orthogonalLoop=1;jettySize=auto;html=1;entryX=0;entryY=0.5;entryDx=0;entryDy=0;fontColor=none;" edge="1" parent="G5nIuUwNsv8SvUOpLTPq-166" source="G5nIuUwNsv8SvUOpLTPq-188" target="G5nIuUwNsv8SvUOpLTPq-186">
          <mxGeometry relative="1" as="geometry" />
        </mxCell>
        <mxCell id="G5nIuUwNsv8SvUOpLTPq-188" value="选择&lt;br&gt;资源&lt;br&gt;规格" style="rounded=0;whiteSpace=wrap;html=1;labelBackgroundColor=#ffffff;sketch=0;fontColor=none;align=center;" vertex="1" parent="G5nIuUwNsv8SvUOpLTPq-166">
          <mxGeometry x="221.12" y="609.25" width="28.88" height="30" as="geometry" />
        </mxCell>
        <mxCell id="G5nIuUwNsv8SvUOpLTPq-189" value="①" style="text;html=1;strokeColor=none;fillColor=none;align=center;verticalAlign=middle;whiteSpace=wrap;rounded=0;labelBackgroundColor=#ffffff;sketch=0;fontColor=none;" vertex="1" parent="G5nIuUwNsv8SvUOpLTPq-166">
          <mxGeometry x="454" y="424" width="32" height="20" as="geometry" />
        </mxCell>
        <mxCell id="G5nIuUwNsv8SvUOpLTPq-190" value="未通过" style="text;html=1;strokeColor=none;fillColor=none;align=center;verticalAlign=middle;whiteSpace=wrap;rounded=0;labelBackgroundColor=#ffffff;sketch=0;fontColor=none;" vertex="1" parent="G5nIuUwNsv8SvUOpLTPq-166">
          <mxGeometry x="434" y="677" width="40" height="20" as="geometry" />
        </mxCell>
        <mxCell id="G5nIuUwNsv8SvUOpLTPq-191" style="edgeStyle=orthogonalEdgeStyle;curved=0;rounded=1;sketch=0;orthogonalLoop=1;jettySize=auto;html=1;entryX=0;entryY=0.75;entryDx=0;entryDy=0;fontColor=none;" edge="1" parent="G5nIuUwNsv8SvUOpLTPq-152" source="G5nIuUwNsv8SvUOpLTPq-194" target="G5nIuUwNsv8SvUOpLTPq-197">
          <mxGeometry relative="1" as="geometry" />
        </mxCell>
        <mxCell id="G5nIuUwNsv8SvUOpLTPq-192" style="edgeStyle=orthogonalEdgeStyle;curved=0;rounded=1;sketch=0;orthogonalLoop=1;jettySize=auto;html=1;fontColor=none;" edge="1" parent="G5nIuUwNsv8SvUOpLTPq-152" source="G5nIuUwNsv8SvUOpLTPq-194" target="G5nIuUwNsv8SvUOpLTPq-198">
          <mxGeometry relative="1" as="geometry" />
        </mxCell>
        <mxCell id="G5nIuUwNsv8SvUOpLTPq-193" style="edgeStyle=orthogonalEdgeStyle;curved=0;rounded=1;sketch=0;orthogonalLoop=1;jettySize=auto;html=1;entryX=0;entryY=0.5;entryDx=0;entryDy=0;fontColor=none;" edge="1" parent="G5nIuUwNsv8SvUOpLTPq-152" source="G5nIuUwNsv8SvUOpLTPq-194" target="G5nIuUwNsv8SvUOpLTPq-199">
          <mxGeometry relative="1" as="geometry" />
        </mxCell>
        <mxCell id="G5nIuUwNsv8SvUOpLTPq-194" value="服务列表" style="rounded=0;whiteSpace=wrap;html=1;labelBackgroundColor=#ffffff;sketch=0;fontColor=none;align=center;" vertex="1" parent="G5nIuUwNsv8SvUOpLTPq-152">
          <mxGeometry x="1180" y="93" width="60" height="27" as="geometry" />
        </mxCell>
        <mxCell id="G5nIuUwNsv8SvUOpLTPq-195" value="一键发布&amp;amp;部署" style="rounded=0;whiteSpace=wrap;html=1;labelBackgroundColor=#ffffff;sketch=0;fontColor=none;align=center;" vertex="1" parent="G5nIuUwNsv8SvUOpLTPq-152">
          <mxGeometry x="1080" y="93" width="56.12" height="27" as="geometry" />
        </mxCell>
        <mxCell id="G5nIuUwNsv8SvUOpLTPq-196" style="edgeStyle=orthogonalEdgeStyle;curved=0;rounded=1;sketch=0;orthogonalLoop=1;jettySize=auto;html=1;fontColor=none;entryX=0;entryY=0.5;entryDx=0;entryDy=0;" edge="1" parent="G5nIuUwNsv8SvUOpLTPq-152" source="G5nIuUwNsv8SvUOpLTPq-182" target="G5nIuUwNsv8SvUOpLTPq-195">
          <mxGeometry relative="1" as="geometry">
            <mxPoint x="1050" y="105" as="targetPoint" />
            <Array as="points">
              <mxPoint x="953" y="107" />
              <mxPoint x="1053" y="107" />
            </Array>
          </mxGeometry>
        </mxCell>
        <mxCell id="G5nIuUwNsv8SvUOpLTPq-197" value="访问监控" style="rounded=0;whiteSpace=wrap;html=1;labelBackgroundColor=#ffffff;sketch=0;fontColor=none;align=center;" vertex="1" parent="G5nIuUwNsv8SvUOpLTPq-152">
          <mxGeometry x="1300" y="47" width="90" height="27" as="geometry" />
        </mxCell>
        <mxCell id="G5nIuUwNsv8SvUOpLTPq-198" value="告警配置" style="rounded=0;whiteSpace=wrap;html=1;labelBackgroundColor=#ffffff;sketch=0;fontColor=none;align=center;" vertex="1" parent="G5nIuUwNsv8SvUOpLTPq-152">
          <mxGeometry x="1300" y="119" width="90" height="27" as="geometry" />
        </mxCell>
        <mxCell id="G5nIuUwNsv8SvUOpLTPq-199" value="操作日志" style="rounded=0;whiteSpace=wrap;html=1;labelBackgroundColor=#ffffff;sketch=0;fontColor=none;align=center;" vertex="1" parent="G5nIuUwNsv8SvUOpLTPq-152">
          <mxGeometry x="1300" y="196" width="90" height="27" as="geometry" />
        </mxCell>
        <mxCell id="G5nIuUwNsv8SvUOpLTPq-200" value="访问量（成功/失败）、&lt;br&gt;Qps、响应时长、&lt;br&gt;资源使用率&lt;br&gt;访问日志" style="text;html=1;strokeColor=none;fillColor=none;align=left;verticalAlign=middle;whiteSpace=wrap;rounded=0;labelBackgroundColor=#ffffff;sketch=0;fontColor=none;" vertex="1" parent="G5nIuUwNsv8SvUOpLTPq-152">
          <mxGeometry x="1408.75" y="58" width="170.5" height="20" as="geometry" />
        </mxCell>
        <mxCell id="G5nIuUwNsv8SvUOpLTPq-201" style="edgeStyle=orthogonalEdgeStyle;curved=0;rounded=1;sketch=0;orthogonalLoop=1;jettySize=auto;html=1;entryX=0.5;entryY=0;entryDx=0;entryDy=0;fontColor=none;" edge="1" parent="G5nIuUwNsv8SvUOpLTPq-151" source="G5nIuUwNsv8SvUOpLTPq-180" target="G5nIuUwNsv8SvUOpLTPq-204">
          <mxGeometry relative="1" as="geometry" />
        </mxCell>
        <mxCell id="G5nIuUwNsv8SvUOpLTPq-202" value="测试工程师" style="swimlane;html=1;startSize=20;horizontal=0;" vertex="1" parent="G5nIuUwNsv8SvUOpLTPq-151">
          <mxGeometry y="741" width="1610" height="129" as="geometry" />
        </mxCell>
        <mxCell id="G5nIuUwNsv8SvUOpLTPq-203" style="edgeStyle=orthogonalEdgeStyle;curved=0;rounded=1;sketch=0;orthogonalLoop=1;jettySize=auto;html=1;entryX=0;entryY=0.5;entryDx=0;entryDy=0;fontColor=none;" edge="1" parent="G5nIuUwNsv8SvUOpLTPq-202" source="G5nIuUwNsv8SvUOpLTPq-204" target="G5nIuUwNsv8SvUOpLTPq-206">
          <mxGeometry relative="1" as="geometry" />
        </mxCell>
        <mxCell id="G5nIuUwNsv8SvUOpLTPq-204" value="接口测试&lt;br&gt;（线下）" style="rounded=0;whiteSpace=wrap;html=1;labelBackgroundColor=#ffffff;sketch=0;fontColor=none;align=center;" vertex="1" parent="G5nIuUwNsv8SvUOpLTPq-202">
          <mxGeometry x="638" y="54" width="76" height="30" as="geometry" />
        </mxCell>
        <mxCell id="G5nIuUwNsv8SvUOpLTPq-205" style="edgeStyle=orthogonalEdgeStyle;curved=0;rounded=1;sketch=0;orthogonalLoop=1;jettySize=auto;html=1;entryX=0;entryY=0.5;entryDx=0;entryDy=0;fontColor=none;" edge="1" parent="G5nIuUwNsv8SvUOpLTPq-202" source="G5nIuUwNsv8SvUOpLTPq-206" target="G5nIuUwNsv8SvUOpLTPq-208">
          <mxGeometry relative="1" as="geometry" />
        </mxCell>
        <mxCell id="G5nIuUwNsv8SvUOpLTPq-206" value="是否通过" style="rhombus;whiteSpace=wrap;html=1;rounded=0;labelBackgroundColor=#ffffff;sketch=0;fontColor=none;align=center;" vertex="1" parent="G5nIuUwNsv8SvUOpLTPq-202">
          <mxGeometry x="760" y="49.5" width="80" height="37.5" as="geometry" />
        </mxCell>
        <mxCell id="G5nIuUwNsv8SvUOpLTPq-207" value="通过" style="text;html=1;strokeColor=none;fillColor=none;align=center;verticalAlign=middle;whiteSpace=wrap;rounded=0;labelBackgroundColor=#ffffff;sketch=0;fontColor=none;" vertex="1" parent="G5nIuUwNsv8SvUOpLTPq-202">
          <mxGeometry x="850" y="44" width="40" height="20" as="geometry" />
        </mxCell>
        <mxCell id="G5nIuUwNsv8SvUOpLTPq-208" value="填写测试信息" style="rounded=0;whiteSpace=wrap;html=1;labelBackgroundColor=#ffffff;sketch=0;fontColor=none;align=center;" vertex="1" parent="G5nIuUwNsv8SvUOpLTPq-202">
          <mxGeometry x="915" y="53.25" width="76" height="30" as="geometry" />
        </mxCell>
        <mxCell id="G5nIuUwNsv8SvUOpLTPq-209" style="edgeStyle=orthogonalEdgeStyle;curved=0;rounded=1;sketch=0;orthogonalLoop=1;jettySize=auto;html=1;entryX=0.5;entryY=1;entryDx=0;entryDy=0;fontColor=none;" edge="1" parent="G5nIuUwNsv8SvUOpLTPq-151" source="G5nIuUwNsv8SvUOpLTPq-208" target="G5nIuUwNsv8SvUOpLTPq-182">
          <mxGeometry relative="1" as="geometry" />
        </mxCell>
        <mxCell id="G5nIuUwNsv8SvUOpLTPq-210" value="模型训练" style="swimlane;rounded=0;labelBackgroundColor=#ffffff;sketch=0;fontColor=none;align=left;" vertex="1" parent="1">
          <mxGeometry x="150.81" y="2116" width="324.5" height="974" as="geometry" />
        </mxCell>
        <mxCell id="G5nIuUwNsv8SvUOpLTPq-211" style="edgeStyle=orthogonalEdgeStyle;curved=0;rounded=1;sketch=0;orthogonalLoop=1;jettySize=auto;html=1;entryX=0.5;entryY=0;entryDx=0;entryDy=0;fontColor=none;" edge="1" parent="1" source="G5nIuUwNsv8SvUOpLTPq-212" target="G5nIuUwNsv8SvUOpLTPq-178">
          <mxGeometry relative="1" as="geometry" />
        </mxCell>
        <mxCell id="G5nIuUwNsv8SvUOpLTPq-212" value="选择模型文件+推理代码包" style="rounded=0;whiteSpace=wrap;html=1;labelBackgroundColor=#ffffff;sketch=0;fontColor=none;align=left;" vertex="1" parent="1">
          <mxGeometry x="614.1299999999999" y="2495" width="82.12" height="30" as="geometry" />
        </mxCell>
        <mxCell id="G5nIuUwNsv8SvUOpLTPq-213" style="edgeStyle=orthogonalEdgeStyle;curved=0;rounded=1;sketch=0;orthogonalLoop=1;jettySize=auto;html=1;entryX=0.5;entryY=0;entryDx=0;entryDy=0;fontColor=none;" edge="1" parent="1" source="G5nIuUwNsv8SvUOpLTPq-172" target="G5nIuUwNsv8SvUOpLTPq-212">
          <mxGeometry relative="1" as="geometry" />
        </mxCell>
        <mxCell id="G5nIuUwNsv8SvUOpLTPq-214" style="edgeStyle=orthogonalEdgeStyle;curved=0;rounded=1;sketch=0;orthogonalLoop=1;jettySize=auto;html=1;entryX=0.5;entryY=0;entryDx=0;entryDy=0;fontColor=none;dashed=1;" edge="1" parent="1" source="G5nIuUwNsv8SvUOpLTPq-215" target="G5nIuUwNsv8SvUOpLTPq-172">
          <mxGeometry relative="1" as="geometry">
            <Array as="points">
              <mxPoint x="929.81" y="2320" />
              <mxPoint x="565.81" y="2320" />
            </Array>
          </mxGeometry>
        </mxCell>
        <mxCell id="G5nIuUwNsv8SvUOpLTPq-215" value="模型列表&lt;br&gt;&lt;font color=&quot;#ff0000&quot;&gt;（测试未通过）&lt;/font&gt;" style="rounded=0;whiteSpace=wrap;html=1;labelBackgroundColor=#ffffff;sketch=0;fontColor=none;align=center;" vertex="1" parent="1">
          <mxGeometry x="869.92" y="2630" width="120" height="30" as="geometry" />
        </mxCell>
        <mxCell id="G5nIuUwNsv8SvUOpLTPq-216" style="edgeStyle=orthogonalEdgeStyle;curved=0;rounded=1;sketch=0;orthogonalLoop=1;jettySize=auto;html=1;entryX=0.5;entryY=1;entryDx=0;entryDy=0;fontColor=none;" edge="1" parent="1" source="G5nIuUwNsv8SvUOpLTPq-206" target="G5nIuUwNsv8SvUOpLTPq-215">
          <mxGeometry relative="1" as="geometry" />
        </mxCell>
        <mxCell id="G5nIuUwNsv8SvUOpLTPq-217" style="edgeStyle=orthogonalEdgeStyle;curved=0;rounded=1;sketch=0;orthogonalLoop=1;jettySize=auto;html=1;entryX=0;entryY=0.5;entryDx=0;entryDy=0;dashed=1;fontColor=none;" edge="1" parent="1" target="G5nIuUwNsv8SvUOpLTPq-215">
          <mxGeometry relative="1" as="geometry">
            <mxPoint x="809.81" y="2709.9999999999995" as="sourcePoint" />
            <Array as="points">
              <mxPoint x="809.81" y="2726" />
              <mxPoint x="809.81" y="2645" />
            </Array>
          </mxGeometry>
        </mxCell>
        <mxCell id="G5nIuUwNsv8SvUOpLTPq-218" value="模型服务" style="swimlane;rounded=0;labelBackgroundColor=#ffffff;sketch=0;fontColor=none;align=left;" vertex="1" parent="1">
          <mxGeometry x="1180.31" y="2115" width="559.5" height="975" as="geometry" />
        </mxCell>
        <mxCell id="G5nIuUwNsv8SvUOpLTPq-219" value="操作/上下线" style="rounded=0;whiteSpace=wrap;html=1;labelBackgroundColor=#ffffff;sketch=0;fontColor=none;align=center;" vertex="1" parent="G5nIuUwNsv8SvUOpLTPq-218">
          <mxGeometry x="254" y="935" width="96" height="27" as="geometry" />
        </mxCell>
        <mxCell id="G5nIuUwNsv8SvUOpLTPq-220" value="重启/扩缩容" style="rounded=0;whiteSpace=wrap;html=1;labelBackgroundColor=#ffffff;sketch=0;fontColor=none;align=center;" vertex="1" parent="G5nIuUwNsv8SvUOpLTPq-218">
          <mxGeometry x="254" y="885" width="96" height="27" as="geometry" />
        </mxCell>
        <mxCell id="G5nIuUwNsv8SvUOpLTPq-221" style="edgeStyle=orthogonalEdgeStyle;curved=0;rounded=1;sketch=0;orthogonalLoop=1;jettySize=auto;html=1;fontColor=none;" edge="1" parent="1" source="G5nIuUwNsv8SvUOpLTPq-195">
          <mxGeometry relative="1" as="geometry">
            <mxPoint x="1309.8099999999995" y="2221.4999999999995" as="targetPoint" />
          </mxGeometry>
        </mxCell>
        <mxCell id="G5nIuUwNsv8SvUOpLTPq-222" value="失败、延时的告警配置" style="text;html=1;strokeColor=none;fillColor=none;align=left;verticalAlign=middle;whiteSpace=wrap;rounded=0;labelBackgroundColor=#ffffff;sketch=0;fontColor=none;" vertex="1" parent="1">
          <mxGeometry x="1539.31" y="2238" width="159" height="20" as="geometry" />
        </mxCell>
        <mxCell id="G5nIuUwNsv8SvUOpLTPq-223" value="服务运维人员" style="swimlane;html=1;startSize=20;horizontal=0;" vertex="1" parent="1">
          <mxGeometry x="129.81" y="2964" width="1610" height="129" as="geometry" />
        </mxCell>
        <mxCell id="G5nIuUwNsv8SvUOpLTPq-224" style="edgeStyle=orthogonalEdgeStyle;curved=0;rounded=1;sketch=0;orthogonalLoop=1;jettySize=auto;html=1;entryX=0;entryY=0.75;entryDx=0;entryDy=0;fontColor=none;" edge="1" parent="1" source="G5nIuUwNsv8SvUOpLTPq-194" target="G5nIuUwNsv8SvUOpLTPq-219">
          <mxGeometry relative="1" as="geometry">
            <Array as="points">
              <mxPoint x="1399.81" y="2222" />
              <mxPoint x="1399.81" y="3070" />
            </Array>
          </mxGeometry>
        </mxCell>
        <mxCell id="G5nIuUwNsv8SvUOpLTPq-225" style="edgeStyle=orthogonalEdgeStyle;curved=0;rounded=1;sketch=0;orthogonalLoop=1;jettySize=auto;html=1;entryX=0;entryY=0.5;entryDx=0;entryDy=0;fontColor=none;" edge="1" parent="1" source="G5nIuUwNsv8SvUOpLTPq-194" target="G5nIuUwNsv8SvUOpLTPq-220">
          <mxGeometry relative="1" as="geometry">
            <Array as="points">
              <mxPoint x="1399.81" y="2222" />
              <mxPoint x="1399.81" y="3014" />
            </Array>
          </mxGeometry>
        </mxCell>
        <mxCell id="G5nIuUwNsv8SvUOpLTPq-226" value="顺丰云发版模型服务流程繁复，不适用于模型API发布的场景，模型迭代更新模型文件麻烦，目前直接替换NAS路径，存在风险；" style="text;html=1;strokeColor=none;fillColor=none;align=center;verticalAlign=middle;whiteSpace=wrap;rounded=0;labelBackgroundColor=#ffffff;sketch=0;fontColor=#3333FF;" vertex="1" parent="1">
          <mxGeometry x="745.04" y="870" width="700" height="35" as="geometry" />
        </mxCell>
        <mxCell id="G5nIuUwNsv8SvUOpLTPq-227" value="资源浪费：按高峰Qps申请资源" style="text;html=1;strokeColor=none;fillColor=none;align=center;verticalAlign=middle;whiteSpace=wrap;rounded=0;labelBackgroundColor=#ffffff;sketch=0;fontColor=#3333FF;" vertex="1" parent="1">
          <mxGeometry x="745.0399999999998" y="830" width="184" height="20" as="geometry" />
        </mxCell>
        <mxCell id="G5nIuUwNsv8SvUOpLTPq-228" value="阶段1：专注算法模型的API服务化，提供基础的接口封装能力，标准化流程的开端；&lt;br&gt;&amp;nbsp; &amp;nbsp; &amp;nbsp; &amp;nbsp; &amp;nbsp; &amp;nbsp;AI提供针对模型的API接口封装能力，满足简单场景1类型的全流程； 满足场景2、3的针对模型的接口封装流程；&lt;br&gt;&amp;nbsp; &amp;nbsp; &amp;nbsp; &amp;nbsp; &amp;nbsp; &amp;nbsp;&amp;nbsp;" style="text;html=1;strokeColor=none;fillColor=none;align=left;verticalAlign=middle;whiteSpace=wrap;rounded=0;" vertex="1" parent="1">
          <mxGeometry x="110" y="390" width="890" height="20" as="geometry" />
        </mxCell>
        <mxCell id="G5nIuUwNsv8SvUOpLTPq-229" value="阶段2：扩大AI模型上线全流程的支撑范围；（1）模型服务组装； 提供模型服务组装能力，应对复杂业务场景需求；" style="text;html=1;strokeColor=none;fillColor=none;align=left;verticalAlign=middle;whiteSpace=wrap;rounded=0;" vertex="1" parent="1">
          <mxGeometry x="106.81" y="565" width="653.19" height="20" as="geometry" />
        </mxCell>
        <mxCell id="G5nIuUwNsv8SvUOpLTPq-230" value="阶段3：扩展业务系统对接方式；（1）平台化扩展针对高实时场景的Kafka、Redis等中间件相关工具化对接支持，业务系统对接方式；将工程化能力赋予算法工程师；" style="text;html=1;strokeColor=none;fillColor=none;align=left;verticalAlign=middle;whiteSpace=wrap;rounded=0;" vertex="1" parent="1">
          <mxGeometry x="107.81" y="600" width="962.19" height="20" as="geometry" />
        </mxCell>
        <mxCell id="G5nIuUwNsv8SvUOpLTPq-231" value="测试资源的自动释放" style="text;html=1;strokeColor=none;fillColor=none;align=center;verticalAlign=middle;whiteSpace=wrap;rounded=0;labelBackgroundColor=#ffffff;sketch=0;fontColor=#3333FF;" vertex="1" parent="1">
          <mxGeometry x="742.04" y="710" width="130.96" height="20" as="geometry" />
        </mxCell>
      </root>
    </mxGraphModel>
  </diagram>
</mxfile>
